<mxfile host="app.diagrams.net" agent="Mozilla/5.0 (Windows NT 10.0; Win64; x64) AppleWebKit/537.36 (KHTML, like Gecko) Chrome/138.0.0.0 Safari/537.36" version="28.0.6" pages="4">
  <diagram name="General" id="EEAb1dHN6E-b4VubWDZU">
    <mxGraphModel dx="1213" dy="1513" grid="1" gridSize="10" guides="1" tooltips="1" connect="1" arrows="1" fold="1" page="1" pageScale="1" pageWidth="1100" pageHeight="850" math="0" shadow="0">
      <root>
        <mxCell id="0" />
        <mxCell id="1" parent="0" />
        <mxCell id="Zk4eO1-CVe2jwhaPAREJ-2" value="&lt;font style=&quot;font-size: 15px;&quot;&gt;Contador Up/Down de incremento variable y lÃ­mites de conteo programables&lt;/font&gt;" style="rounded=1;whiteSpace=wrap;html=1;" parent="1" vertex="1">
          <mxGeometry x="340" y="-770" width="220" height="350" as="geometry" />
        </mxCell>
        <mxCell id="Zk4eO1-CVe2jwhaPAREJ-8" style="edgeStyle=orthogonalEdgeStyle;rounded=0;orthogonalLoop=1;jettySize=auto;html=1;exitX=0;exitY=0.25;exitDx=0;exitDy=0;entryX=0;entryY=0.25;entryDx=0;entryDy=0;" parent="1" edge="1">
          <mxGeometry relative="1" as="geometry">
            <mxPoint x="340" y="-700" as="targetPoint" />
            <mxPoint x="180" y="-699.5714285714287" as="sourcePoint" />
            <Array as="points">
              <mxPoint x="260" y="-700" />
            </Array>
          </mxGeometry>
        </mxCell>
        <mxCell id="Zk4eO1-CVe2jwhaPAREJ-9" value="b1" style="edgeLabel;html=1;align=center;verticalAlign=middle;resizable=0;points=[];" parent="Zk4eO1-CVe2jwhaPAREJ-8" vertex="1" connectable="0">
          <mxGeometry x="-0.7221" y="2" relative="1" as="geometry">
            <mxPoint y="-9" as="offset" />
          </mxGeometry>
        </mxCell>
        <mxCell id="Zk4eO1-CVe2jwhaPAREJ-10" style="edgeStyle=orthogonalEdgeStyle;rounded=0;orthogonalLoop=1;jettySize=auto;html=1;exitX=0;exitY=0.25;exitDx=0;exitDy=0;entryX=0;entryY=0.25;entryDx=0;entryDy=0;" parent="1" edge="1">
          <mxGeometry relative="1" as="geometry">
            <mxPoint x="340" y="-680" as="targetPoint" />
            <mxPoint x="180" y="-679.5714285714287" as="sourcePoint" />
            <Array as="points">
              <mxPoint x="260" y="-680" />
            </Array>
          </mxGeometry>
        </mxCell>
        <object label="b0" id="Zk4eO1-CVe2jwhaPAREJ-11">
          <mxCell style="edgeLabel;html=1;align=center;verticalAlign=middle;resizable=0;points=[];" parent="Zk4eO1-CVe2jwhaPAREJ-10" vertex="1" connectable="0">
            <mxGeometry x="-0.7221" y="2" relative="1" as="geometry">
              <mxPoint y="-9" as="offset" />
            </mxGeometry>
          </mxCell>
        </object>
        <mxCell id="Zk4eO1-CVe2jwhaPAREJ-12" value="" style="shape=flexArrow;endArrow=classic;startArrow=classic;html=1;rounded=0;width=19.11111111111111;endSize=6.875555555555556;" parent="1" edge="1">
          <mxGeometry width="100" height="100" relative="1" as="geometry">
            <mxPoint x="170" y="-640" as="sourcePoint" />
            <mxPoint x="340" y="-640" as="targetPoint" />
            <Array as="points">
              <mxPoint x="280" y="-640" />
            </Array>
          </mxGeometry>
        </mxCell>
        <mxCell id="Zk4eO1-CVe2jwhaPAREJ-13" value="DATA[11..0]" style="edgeLabel;html=1;align=center;verticalAlign=middle;resizable=0;points=[];" parent="Zk4eO1-CVe2jwhaPAREJ-12" vertex="1" connectable="0">
          <mxGeometry x="-0.095" y="-1" relative="1" as="geometry">
            <mxPoint x="13" y="-1" as="offset" />
          </mxGeometry>
        </mxCell>
        <mxCell id="Zk4eO1-CVe2jwhaPAREJ-14" style="edgeStyle=orthogonalEdgeStyle;rounded=0;orthogonalLoop=1;jettySize=auto;html=1;exitX=0;exitY=0.25;exitDx=0;exitDy=0;entryX=0;entryY=0.25;entryDx=0;entryDy=0;" parent="1" edge="1">
          <mxGeometry relative="1" as="geometry">
            <mxPoint x="340" y="-580" as="targetPoint" />
            <mxPoint x="180" y="-579.5714285714287" as="sourcePoint" />
          </mxGeometry>
        </mxCell>
        <mxCell id="Zk4eO1-CVe2jwhaPAREJ-15" value="LOAD_I" style="edgeLabel;html=1;align=center;verticalAlign=middle;resizable=0;points=[];" parent="Zk4eO1-CVe2jwhaPAREJ-14" vertex="1" connectable="0">
          <mxGeometry x="-0.7221" y="2" relative="1" as="geometry">
            <mxPoint y="-9" as="offset" />
          </mxGeometry>
        </mxCell>
        <mxCell id="Zk4eO1-CVe2jwhaPAREJ-16" style="edgeStyle=orthogonalEdgeStyle;rounded=0;orthogonalLoop=1;jettySize=auto;html=1;exitX=0;exitY=0.25;exitDx=0;exitDy=0;entryX=0;entryY=0.25;entryDx=0;entryDy=0;" parent="1" edge="1">
          <mxGeometry relative="1" as="geometry">
            <mxPoint x="340" y="-550" as="targetPoint" />
            <mxPoint x="180" y="-549.5714285714287" as="sourcePoint" />
          </mxGeometry>
        </mxCell>
        <mxCell id="Zk4eO1-CVe2jwhaPAREJ-17" value="LOAD_F" style="edgeLabel;html=1;align=center;verticalAlign=middle;resizable=0;points=[];" parent="Zk4eO1-CVe2jwhaPAREJ-16" vertex="1" connectable="0">
          <mxGeometry x="-0.7221" y="2" relative="1" as="geometry">
            <mxPoint y="-9" as="offset" />
          </mxGeometry>
        </mxCell>
        <mxCell id="Zk4eO1-CVe2jwhaPAREJ-18" style="edgeStyle=orthogonalEdgeStyle;rounded=0;orthogonalLoop=1;jettySize=auto;html=1;exitX=0;exitY=0.25;exitDx=0;exitDy=0;entryX=0;entryY=0.25;entryDx=0;entryDy=0;" parent="1" edge="1">
          <mxGeometry relative="1" as="geometry">
            <mxPoint x="340" y="-520" as="targetPoint" />
            <mxPoint x="180" y="-519.5714285714287" as="sourcePoint" />
          </mxGeometry>
        </mxCell>
        <mxCell id="Zk4eO1-CVe2jwhaPAREJ-19" value="CONTINUAR" style="edgeLabel;html=1;align=center;verticalAlign=middle;resizable=0;points=[];" parent="Zk4eO1-CVe2jwhaPAREJ-18" vertex="1" connectable="0">
          <mxGeometry x="-0.7221" y="2" relative="1" as="geometry">
            <mxPoint x="8" y="-9" as="offset" />
          </mxGeometry>
        </mxCell>
        <mxCell id="Zk4eO1-CVe2jwhaPAREJ-20" style="edgeStyle=orthogonalEdgeStyle;rounded=0;orthogonalLoop=1;jettySize=auto;html=1;exitX=0;exitY=0.25;exitDx=0;exitDy=0;entryX=0;entryY=0.25;entryDx=0;entryDy=0;" parent="1" edge="1">
          <mxGeometry relative="1" as="geometry">
            <mxPoint x="340" y="-490" as="targetPoint" />
            <mxPoint x="180" y="-489.57142857142867" as="sourcePoint" />
          </mxGeometry>
        </mxCell>
        <mxCell id="Zk4eO1-CVe2jwhaPAREJ-21" value="RECARGAR" style="edgeLabel;html=1;align=center;verticalAlign=middle;resizable=0;points=[];" parent="Zk4eO1-CVe2jwhaPAREJ-20" vertex="1" connectable="0">
          <mxGeometry x="-0.7221" y="2" relative="1" as="geometry">
            <mxPoint x="8" y="-9" as="offset" />
          </mxGeometry>
        </mxCell>
        <mxCell id="Zk4eO1-CVe2jwhaPAREJ-22" style="edgeStyle=orthogonalEdgeStyle;rounded=0;orthogonalLoop=1;jettySize=auto;html=1;exitX=0;exitY=0.25;exitDx=0;exitDy=0;entryX=0;entryY=0.25;entryDx=0;entryDy=0;" parent="1" edge="1">
          <mxGeometry relative="1" as="geometry">
            <mxPoint x="340" y="-460" as="targetPoint" />
            <mxPoint x="180" y="-459.57142857142867" as="sourcePoint" />
          </mxGeometry>
        </mxCell>
        <mxCell id="Zk4eO1-CVe2jwhaPAREJ-23" value="CLOCK" style="edgeLabel;html=1;align=center;verticalAlign=middle;resizable=0;points=[];" parent="Zk4eO1-CVe2jwhaPAREJ-22" vertex="1" connectable="0">
          <mxGeometry x="-0.7221" y="2" relative="1" as="geometry">
            <mxPoint y="-9" as="offset" />
          </mxGeometry>
        </mxCell>
        <mxCell id="Zk4eO1-CVe2jwhaPAREJ-24" style="edgeStyle=orthogonalEdgeStyle;rounded=0;orthogonalLoop=1;jettySize=auto;html=1;exitX=0;exitY=0.25;exitDx=0;exitDy=0;" parent="1" edge="1">
          <mxGeometry relative="1" as="geometry">
            <mxPoint x="650" y="-720" as="targetPoint" />
            <mxPoint x="560" y="-719.9714285714286" as="sourcePoint" />
            <Array as="points">
              <mxPoint x="641" y="-720.4" />
              <mxPoint x="720" y="-719.4" />
            </Array>
          </mxGeometry>
        </mxCell>
        <mxCell id="Zk4eO1-CVe2jwhaPAREJ-25" value="ERROR" style="edgeLabel;html=1;align=center;verticalAlign=middle;resizable=0;points=[];" parent="Zk4eO1-CVe2jwhaPAREJ-24" vertex="1" connectable="0">
          <mxGeometry x="-0.7221" y="2" relative="1" as="geometry">
            <mxPoint x="17" y="-9" as="offset" />
          </mxGeometry>
        </mxCell>
        <mxCell id="Zk4eO1-CVe2jwhaPAREJ-26" style="edgeStyle=orthogonalEdgeStyle;rounded=0;orthogonalLoop=1;jettySize=auto;html=1;exitX=0;exitY=0.25;exitDx=0;exitDy=0;" parent="1" edge="1">
          <mxGeometry relative="1" as="geometry">
            <mxPoint x="650" y="-689" as="targetPoint" />
            <mxPoint x="560" y="-689.9514285714287" as="sourcePoint" />
            <Array as="points">
              <mxPoint x="641" y="-690.38" />
              <mxPoint x="720" y="-689.38" />
            </Array>
          </mxGeometry>
        </mxCell>
        <mxCell id="Zk4eO1-CVe2jwhaPAREJ-27" value="FIN" style="edgeLabel;html=1;align=center;verticalAlign=middle;resizable=0;points=[];" parent="Zk4eO1-CVe2jwhaPAREJ-26" vertex="1" connectable="0">
          <mxGeometry x="-0.7221" y="2" relative="1" as="geometry">
            <mxPoint x="7" y="-9" as="offset" />
          </mxGeometry>
        </mxCell>
        <mxCell id="Zk4eO1-CVe2jwhaPAREJ-28" style="edgeStyle=orthogonalEdgeStyle;rounded=0;orthogonalLoop=1;jettySize=auto;html=1;exitX=0;exitY=0.25;exitDx=0;exitDy=0;" parent="1" edge="1">
          <mxGeometry relative="1" as="geometry">
            <mxPoint x="650" y="-659" as="targetPoint" />
            <mxPoint x="560" y="-659.9314285714287" as="sourcePoint" />
            <Array as="points">
              <mxPoint x="641" y="-660.36" />
              <mxPoint x="720" y="-659.36" />
            </Array>
          </mxGeometry>
        </mxCell>
        <mxCell id="Zk4eO1-CVe2jwhaPAREJ-29" value="PAUSA" style="edgeLabel;html=1;align=center;verticalAlign=middle;resizable=0;points=[];" parent="Zk4eO1-CVe2jwhaPAREJ-28" vertex="1" connectable="0">
          <mxGeometry x="-0.7221" y="2" relative="1" as="geometry">
            <mxPoint x="17" y="-9" as="offset" />
          </mxGeometry>
        </mxCell>
        <mxCell id="Zk4eO1-CVe2jwhaPAREJ-30" style="edgeStyle=orthogonalEdgeStyle;rounded=0;orthogonalLoop=1;jettySize=auto;html=1;" parent="1" edge="1">
          <mxGeometry relative="1" as="geometry">
            <mxPoint x="390" y="-420" as="targetPoint" />
            <mxPoint x="390" y="-370" as="sourcePoint" />
            <Array as="points">
              <mxPoint x="390" y="-391.01" />
              <mxPoint x="390" y="-391.01" />
            </Array>
          </mxGeometry>
        </mxCell>
        <mxCell id="Zk4eO1-CVe2jwhaPAREJ-31" value="UP/DOWN" style="edgeLabel;html=1;align=center;verticalAlign=middle;resizable=0;points=[];" parent="Zk4eO1-CVe2jwhaPAREJ-30" vertex="1" connectable="0">
          <mxGeometry x="-0.7221" y="2" relative="1" as="geometry">
            <mxPoint x="-8" y="17" as="offset" />
          </mxGeometry>
        </mxCell>
        <mxCell id="Zk4eO1-CVe2jwhaPAREJ-32" style="edgeStyle=orthogonalEdgeStyle;rounded=0;orthogonalLoop=1;jettySize=auto;html=1;" parent="1" edge="1">
          <mxGeometry relative="1" as="geometry">
            <mxPoint x="430" y="-420" as="targetPoint" />
            <mxPoint x="430" y="-370" as="sourcePoint" />
            <Array as="points">
              <mxPoint x="430" y="-391.01" />
              <mxPoint x="430" y="-391.01" />
            </Array>
          </mxGeometry>
        </mxCell>
        <mxCell id="Zk4eO1-CVe2jwhaPAREJ-33" value="START" style="edgeLabel;html=1;align=center;verticalAlign=middle;resizable=0;points=[];" parent="Zk4eO1-CVe2jwhaPAREJ-32" vertex="1" connectable="0">
          <mxGeometry x="-0.7221" y="2" relative="1" as="geometry">
            <mxPoint x="12" y="17" as="offset" />
          </mxGeometry>
        </mxCell>
        <mxCell id="Zk4eO1-CVe2jwhaPAREJ-34" style="edgeStyle=orthogonalEdgeStyle;rounded=0;orthogonalLoop=1;jettySize=auto;html=1;exitX=0;exitY=0.25;exitDx=0;exitDy=0;entryX=0;entryY=0.25;entryDx=0;entryDy=0;" parent="1" edge="1">
          <mxGeometry relative="1" as="geometry">
            <mxPoint x="340" y="-720" as="targetPoint" />
            <mxPoint x="180" y="-719.5714285714287" as="sourcePoint" />
            <Array as="points">
              <mxPoint x="260" y="-720" />
            </Array>
          </mxGeometry>
        </mxCell>
        <mxCell id="Zk4eO1-CVe2jwhaPAREJ-35" value="b2" style="edgeLabel;html=1;align=center;verticalAlign=middle;resizable=0;points=[];" parent="Zk4eO1-CVe2jwhaPAREJ-34" vertex="1" connectable="0">
          <mxGeometry x="-0.7221" y="2" relative="1" as="geometry">
            <mxPoint y="-9" as="offset" />
          </mxGeometry>
        </mxCell>
        <mxCell id="Zk4eO1-CVe2jwhaPAREJ-36" value="__" style="text;html=1;align=center;verticalAlign=middle;whiteSpace=wrap;rounded=0;" parent="1" vertex="1">
          <mxGeometry x="331" y="-388" width="60" height="30" as="geometry" />
        </mxCell>
        <mxCell id="Zk4eO1-CVe2jwhaPAREJ-37" value="" style="triangle;whiteSpace=wrap;html=1;" parent="1" vertex="1">
          <mxGeometry x="340" y="-465" width="10" height="10" as="geometry" />
        </mxCell>
      </root>
    </mxGraphModel>
  </diagram>
  <diagram id="MBViVHzpz38LwhrgYlLa" name="Contador Up/Down">
    <mxGraphModel dx="837" dy="457" grid="1" gridSize="10" guides="1" tooltips="1" connect="1" arrows="1" fold="1" page="1" pageScale="1" pageWidth="1100" pageHeight="850" math="0" shadow="0">
      <root>
        <mxCell id="0" />
        <mxCell id="1" parent="0" />
        <mxCell id="SYs1Sd5xf8g1arsFMRHJ-1" value="&lt;span style=&quot;color: rgb(0, 0, 0); font-family: Helvetica; font-style: normal; font-variant-ligatures: normal; font-variant-caps: normal; font-weight: 400; letter-spacing: normal; orphans: 2; text-align: center; text-indent: 0px; text-transform: none; widows: 2; word-spacing: 0px; -webkit-text-stroke-width: 0px; white-space: normal; background-color: rgb(236, 236, 236); text-decoration-thickness: initial; text-decoration-style: initial; text-decoration-color: initial; float: none; display: inline !important;&quot;&gt;Contador Up/Down de incremento variable y lÃ­mites de conteo programables&lt;/span&gt;" style="text;whiteSpace=wrap;html=1;fontSize=17;" parent="1" vertex="1">
          <mxGeometry x="253" y="30" width="595" height="40" as="geometry" />
        </mxCell>
        <mxCell id="ioLFR17E4ViIQYoxCpSj-47" value="valor_final" style="edgeStyle=orthogonalEdgeStyle;rounded=0;orthogonalLoop=1;jettySize=auto;html=1;shape=flexArrow;width=7.2;endSize=4.112;endWidth=11.92;exitX=0.995;exitY=0.386;exitDx=0;exitDy=0;exitPerimeter=0;" parent="1" source="5YCoUz0_5GFnxVRF15zM-1" target="XcIXjamz96Wju4GIK8jk-1" edge="1">
          <mxGeometry x="-0.1455" y="-42" relative="1" as="geometry">
            <mxPoint x="683" y="180" as="targetPoint" />
            <mxPoint x="650" y="480" as="sourcePoint" />
            <mxPoint as="offset" />
            <Array as="points">
              <mxPoint x="660" y="480" />
              <mxPoint x="688" y="480" />
              <mxPoint x="688" y="281" />
            </Array>
          </mxGeometry>
        </mxCell>
        <mxCell id="JB04H43JbpIpwpsCvYVj-1" value="valor_actual" style="edgeLabel;html=1;align=center;verticalAlign=middle;resizable=0;points=[];" vertex="1" connectable="0" parent="ioLFR17E4ViIQYoxCpSj-47">
          <mxGeometry x="-0.6404" y="-2" relative="1" as="geometry">
            <mxPoint x="-40" y="-60" as="offset" />
          </mxGeometry>
        </mxCell>
        <mxCell id="5YCoUz0_5GFnxVRF15zM-1" value="SUMADOR" style="rounded=1;whiteSpace=wrap;html=1;" parent="1" vertex="1">
          <mxGeometry x="513" y="430" width="120" height="130" as="geometry" />
        </mxCell>
        <mxCell id="ioLFR17E4ViIQYoxCpSj-34" style="edgeStyle=orthogonalEdgeStyle;rounded=0;orthogonalLoop=1;jettySize=auto;html=1;" parent="1" edge="1">
          <mxGeometry relative="1" as="geometry">
            <mxPoint x="308" y="280.71" as="targetPoint" />
            <mxPoint x="218" y="280.71" as="sourcePoint" />
          </mxGeometry>
        </mxCell>
        <mxCell id="ioLFR17E4ViIQYoxCpSj-35" value="LOAD_I" style="edgeLabel;html=1;align=center;verticalAlign=middle;resizable=0;points=[];" parent="ioLFR17E4ViIQYoxCpSj-34" vertex="1" connectable="0">
          <mxGeometry x="-0.7221" y="2" relative="1" as="geometry">
            <mxPoint x="8" y="-11" as="offset" />
          </mxGeometry>
        </mxCell>
        <mxCell id="ioLFR17E4ViIQYoxCpSj-36" style="edgeStyle=orthogonalEdgeStyle;rounded=0;orthogonalLoop=1;jettySize=auto;html=1;" parent="1" edge="1">
          <mxGeometry relative="1" as="geometry">
            <mxPoint x="308" y="310" as="targetPoint" />
            <mxPoint x="218" y="310" as="sourcePoint" />
            <Array as="points">
              <mxPoint x="268" y="310" />
              <mxPoint x="268" y="310" />
            </Array>
          </mxGeometry>
        </mxCell>
        <mxCell id="ioLFR17E4ViIQYoxCpSj-37" value="LOAD_F" style="edgeLabel;html=1;align=center;verticalAlign=middle;resizable=0;points=[];" parent="ioLFR17E4ViIQYoxCpSj-36" vertex="1" connectable="0">
          <mxGeometry x="-0.7221" y="2" relative="1" as="geometry">
            <mxPoint x="8" y="-9" as="offset" />
          </mxGeometry>
        </mxCell>
        <mxCell id="ioLFR17E4ViIQYoxCpSj-38" style="edgeStyle=orthogonalEdgeStyle;rounded=0;orthogonalLoop=1;jettySize=auto;html=1;" parent="1" edge="1" target="ioLFR17E4ViIQYoxCpSj-49">
          <mxGeometry relative="1" as="geometry">
            <mxPoint x="293" y="461.57" as="targetPoint" />
            <mxPoint x="213" y="461.57" as="sourcePoint" />
            <Array as="points">
              <mxPoint x="250" y="462" />
              <mxPoint x="250" y="462" />
            </Array>
          </mxGeometry>
        </mxCell>
        <mxCell id="ioLFR17E4ViIQYoxCpSj-39" value="b1" style="edgeLabel;html=1;align=center;verticalAlign=middle;resizable=0;points=[];" parent="ioLFR17E4ViIQYoxCpSj-38" vertex="1" connectable="0">
          <mxGeometry x="-0.7221" y="2" relative="1" as="geometry">
            <mxPoint y="-9" as="offset" />
          </mxGeometry>
        </mxCell>
        <mxCell id="ioLFR17E4ViIQYoxCpSj-42" style="edgeStyle=orthogonalEdgeStyle;rounded=0;orthogonalLoop=1;jettySize=auto;html=1;" parent="1" edge="1" target="ioLFR17E4ViIQYoxCpSj-49">
          <mxGeometry relative="1" as="geometry">
            <mxPoint x="293" y="440" as="targetPoint" />
            <mxPoint x="213" y="440" as="sourcePoint" />
            <Array as="points">
              <mxPoint x="230" y="440" />
              <mxPoint x="230" y="440" />
            </Array>
          </mxGeometry>
        </mxCell>
        <mxCell id="ioLFR17E4ViIQYoxCpSj-43" value="b2" style="edgeLabel;html=1;align=center;verticalAlign=middle;resizable=0;points=[];" parent="ioLFR17E4ViIQYoxCpSj-42" vertex="1" connectable="0">
          <mxGeometry x="-0.7221" y="2" relative="1" as="geometry">
            <mxPoint y="-9" as="offset" />
          </mxGeometry>
        </mxCell>
        <mxCell id="ioLFR17E4ViIQYoxCpSj-44" style="edgeStyle=orthogonalEdgeStyle;rounded=0;orthogonalLoop=1;jettySize=auto;html=1;" parent="1" edge="1" target="5YCoUz0_5GFnxVRF15zM-1">
          <mxGeometry relative="1" as="geometry">
            <mxPoint x="559" y="540" as="targetPoint" />
            <mxPoint x="558.73" y="620" as="sourcePoint" />
            <Array as="points">
              <mxPoint x="560" y="620" />
            </Array>
          </mxGeometry>
        </mxCell>
        <mxCell id="ioLFR17E4ViIQYoxCpSj-45" value="UP/DOWN" style="edgeLabel;html=1;align=center;verticalAlign=middle;resizable=0;points=[];" parent="ioLFR17E4ViIQYoxCpSj-44" vertex="1" connectable="0">
          <mxGeometry x="-0.7221" y="2" relative="1" as="geometry">
            <mxPoint x="-8" y="17" as="offset" />
          </mxGeometry>
        </mxCell>
        <mxCell id="ioLFR17E4ViIQYoxCpSj-32" value="" style="shape=flexArrow;endArrow=classic;startArrow=classic;html=1;rounded=0;width=26.666666666666668;endSize=13.521212121212121;endWidth=31.11111111111111;startSize=14.733333333333333;startWidth=38.98989898989899;" parent="1" edge="1">
          <mxGeometry width="100" height="100" relative="1" as="geometry">
            <mxPoint x="278" y="160" as="sourcePoint" />
            <mxPoint x="928" y="160" as="targetPoint" />
            <Array as="points">
              <mxPoint x="528" y="160" />
              <mxPoint x="718" y="160" />
            </Array>
          </mxGeometry>
        </mxCell>
        <mxCell id="ioLFR17E4ViIQYoxCpSj-33" value="DATA[11..0]" style="edgeLabel;html=1;align=center;verticalAlign=middle;resizable=0;points=[];" parent="ioLFR17E4ViIQYoxCpSj-32" vertex="1" connectable="0">
          <mxGeometry x="-0.095" y="-1" relative="1" as="geometry">
            <mxPoint x="13" y="-1" as="offset" />
          </mxGeometry>
        </mxCell>
        <mxCell id="ioLFR17E4ViIQYoxCpSj-50" style="edgeStyle=orthogonalEdgeStyle;rounded=0;orthogonalLoop=1;jettySize=auto;html=1;exitX=1;exitY=0.5;exitDx=0;exitDy=0;" parent="1" edge="1">
          <mxGeometry relative="1" as="geometry">
            <mxPoint x="408.0000000000001" y="470" as="sourcePoint" />
            <mxPoint x="513" y="470.02439024390253" as="targetPoint" />
            <Array as="points">
              <mxPoint x="490" y="470" />
              <mxPoint x="490" y="470" />
            </Array>
          </mxGeometry>
        </mxCell>
        <mxCell id="iaG5Alr3QgaLqESfKX0B-5" value="b2" style="edgeLabel;html=1;align=center;verticalAlign=middle;resizable=0;points=[];" vertex="1" connectable="0" parent="ioLFR17E4ViIQYoxCpSj-50">
          <mxGeometry x="0.0352" relative="1" as="geometry">
            <mxPoint as="offset" />
          </mxGeometry>
        </mxCell>
        <mxCell id="ioLFR17E4ViIQYoxCpSj-51" value="PAUSA" style="edgeStyle=orthogonalEdgeStyle;rounded=0;orthogonalLoop=1;jettySize=auto;html=1;exitX=0.5;exitY=1;exitDx=0;exitDy=0;" parent="1" edge="1">
          <mxGeometry x="-0.0009" y="22" relative="1" as="geometry">
            <mxPoint x="337.8" y="680" as="targetPoint" />
            <Array as="points">
              <mxPoint x="337.86" y="620" />
              <mxPoint x="337.86" y="620" />
            </Array>
            <mxPoint as="offset" />
            <mxPoint x="337.86" y="600" as="sourcePoint" />
          </mxGeometry>
        </mxCell>
        <mxCell id="ioLFR17E4ViIQYoxCpSj-49" value="LÃGICA DE CONTROL" style="rounded=1;whiteSpace=wrap;html=1;" parent="1" vertex="1">
          <mxGeometry x="268" y="400" width="140" height="200" as="geometry" />
        </mxCell>
        <mxCell id="ioLFR17E4ViIQYoxCpSj-52" value="" style="endArrow=classic;html=1;rounded=0;entryX=0;entryY=0.5;entryDx=0;entryDy=0;shape=flexArrow;width=8.539325842696629;endSize=5.324719101123596;endWidth=7.75013520822066;" parent="1" edge="1">
          <mxGeometry width="50" height="50" relative="1" as="geometry">
            <mxPoint x="691" y="479" as="sourcePoint" />
            <mxPoint x="769" y="479" as="targetPoint" />
          </mxGeometry>
        </mxCell>
        <mxCell id="ioLFR17E4ViIQYoxCpSj-56" value="FIN" style="edgeStyle=orthogonalEdgeStyle;rounded=0;orthogonalLoop=1;jettySize=auto;html=1;" parent="1" edge="1" target="ioLFR17E4ViIQYoxCpSj-49">
          <mxGeometry x="0.1429" y="10" relative="1" as="geometry">
            <mxPoint x="160" y="560" as="targetPoint" />
            <Array as="points">
              <mxPoint x="940" y="480" />
              <mxPoint x="940" y="700" />
              <mxPoint x="160" y="700" />
              <mxPoint x="160" y="560" />
            </Array>
            <mxPoint as="offset" />
            <mxPoint x="888" y="479.8" as="sourcePoint" />
          </mxGeometry>
        </mxCell>
        <mxCell id="ioLFR17E4ViIQYoxCpSj-63" value="ERROR" style="edgeStyle=orthogonalEdgeStyle;rounded=0;orthogonalLoop=1;jettySize=auto;html=1;exitX=0;exitY=1;exitDx=0;exitDy=0;" parent="1" edge="1">
          <mxGeometry x="-0.0004" y="22" relative="1" as="geometry">
            <mxPoint x="288.03" y="680" as="targetPoint" />
            <mxPoint as="offset" />
            <mxPoint x="288.03" y="599.9999999999999" as="sourcePoint" />
            <Array as="points">
              <mxPoint x="288.03" y="680" />
              <mxPoint x="288.03" y="680" />
            </Array>
          </mxGeometry>
        </mxCell>
        <mxCell id="ioLFR17E4ViIQYoxCpSj-53" value="COMPARADOR" style="rounded=1;whiteSpace=wrap;html=1;" parent="1" vertex="1">
          <mxGeometry x="768" y="440" width="120" height="80" as="geometry" />
        </mxCell>
        <mxCell id="ioLFR17E4ViIQYoxCpSj-54" value="comparador del resultado de la suma actual con el valor final" style="text;html=1;align=center;verticalAlign=middle;whiteSpace=wrap;rounded=0;fontSize=9;" parent="1" vertex="1">
          <mxGeometry x="848" y="390" width="100" height="50" as="geometry" />
        </mxCell>
        <mxCell id="ioLFR17E4ViIQYoxCpSj-57" value="segÃºn el valor del paso para la suma que me manden, puedo estar haciendo una pausa" style="text;html=1;align=center;verticalAlign=middle;whiteSpace=wrap;rounded=0;fontSize=9;" parent="1" vertex="1">
          <mxGeometry x="25" y="390" width="100" height="50" as="geometry" />
        </mxCell>
        <mxCell id="ioLFR17E4ViIQYoxCpSj-60" value="CONTINUAR" style="endArrow=classic;html=1;rounded=0;entryX=-0.003;entryY=0.6;entryDx=0;entryDy=0;entryPerimeter=0;" parent="1" target="ioLFR17E4ViIQYoxCpSj-49" edge="1">
          <mxGeometry x="-0.3729" y="10" width="50" height="50" relative="1" as="geometry">
            <mxPoint x="140" y="520" as="sourcePoint" />
            <mxPoint x="178" y="540" as="targetPoint" />
            <mxPoint as="offset" />
            <Array as="points">
              <mxPoint x="180" y="520" />
            </Array>
          </mxGeometry>
        </mxCell>
        <mxCell id="ioLFR17E4ViIQYoxCpSj-61" style="edgeStyle=orthogonalEdgeStyle;rounded=0;orthogonalLoop=1;jettySize=auto;html=1;" parent="1" edge="1">
          <mxGeometry relative="1" as="geometry">
            <mxPoint x="308" y="247" as="targetPoint" />
            <mxPoint x="180" y="247" as="sourcePoint" />
            <Array as="points">
              <mxPoint x="238" y="247" />
            </Array>
          </mxGeometry>
        </mxCell>
        <object label="RECARGAR" id="ioLFR17E4ViIQYoxCpSj-62">
          <mxCell style="edgeLabel;html=1;align=center;verticalAlign=middle;resizable=0;points=[];" parent="ioLFR17E4ViIQYoxCpSj-61" vertex="1" connectable="0">
            <mxGeometry x="-0.7221" y="2" relative="1" as="geometry">
              <mxPoint x="19" y="-9" as="offset" />
            </mxGeometry>
          </mxCell>
        </object>
        <mxCell id="ioLFR17E4ViIQYoxCpSj-64" style="edgeStyle=orthogonalEdgeStyle;rounded=0;orthogonalLoop=1;jettySize=auto;html=1;" parent="1" edge="1" target="ioLFR17E4ViIQYoxCpSj-49">
          <mxGeometry relative="1" as="geometry">
            <mxPoint x="293" y="414.58" as="targetPoint" />
            <mxPoint x="140" y="415" as="sourcePoint" />
            <Array as="points">
              <mxPoint x="180" y="415" />
              <mxPoint x="180" y="415" />
            </Array>
          </mxGeometry>
        </mxCell>
        <object label="START" id="ioLFR17E4ViIQYoxCpSj-65">
          <mxCell style="edgeLabel;html=1;align=center;verticalAlign=middle;resizable=0;points=[];" parent="ioLFR17E4ViIQYoxCpSj-64" vertex="1" connectable="0">
            <mxGeometry x="-0.7221" y="2" relative="1" as="geometry">
              <mxPoint x="19" y="-9" as="offset" />
            </mxGeometry>
          </mxCell>
        </object>
        <mxCell id="ioLFR17E4ViIQYoxCpSj-70" value="" style="endArrow=classic;html=1;rounded=0;entryX=1.002;entryY=0.942;entryDx=0;entryDy=0;entryPerimeter=0;" parent="1" target="ioLFR17E4ViIQYoxCpSj-49" edge="1">
          <mxGeometry width="50" height="50" relative="1" as="geometry">
            <mxPoint x="560" y="588" as="sourcePoint" />
            <mxPoint x="608" y="590" as="targetPoint" />
            <Array as="points" />
          </mxGeometry>
        </mxCell>
        <mxCell id="XcIXjamz96Wju4GIK8jk-1" value="MEMORIA" style="rounded=1;whiteSpace=wrap;html=1;" parent="1" vertex="1">
          <mxGeometry x="308" y="232" width="110" height="98" as="geometry" />
        </mxCell>
        <mxCell id="XcIXjamz96Wju4GIK8jk-2" value="registro de 12 bits con valor inicial, y registro de 12 bits del valor final" style="text;html=1;align=center;verticalAlign=middle;whiteSpace=wrap;rounded=0;fontSize=9;" parent="1" vertex="1">
          <mxGeometry x="80" y="270" width="100" height="50" as="geometry" />
        </mxCell>
        <mxCell id="XcIXjamz96Wju4GIK8jk-4" value="acÃ¡ el data a veces se usa como entrada y a veces como salida" style="text;html=1;align=center;verticalAlign=middle;whiteSpace=wrap;rounded=0;fontSize=9;" parent="1" vertex="1">
          <mxGeometry x="374" y="176" width="139" height="50" as="geometry" />
        </mxCell>
        <mxCell id="bBV2W6COJ8ChpkD-p2IN-1" style="edgeStyle=orthogonalEdgeStyle;rounded=0;orthogonalLoop=1;jettySize=auto;html=1;" edge="1" parent="1" target="ioLFR17E4ViIQYoxCpSj-49">
          <mxGeometry relative="1" as="geometry">
            <mxPoint x="268" y="479.98" as="targetPoint" />
            <mxPoint x="212" y="479.55" as="sourcePoint" />
            <Array as="points">
              <mxPoint x="250" y="480" />
              <mxPoint x="250" y="480" />
            </Array>
          </mxGeometry>
        </mxCell>
        <mxCell id="bBV2W6COJ8ChpkD-p2IN-2" value="b0" style="edgeLabel;html=1;align=center;verticalAlign=middle;resizable=0;points=[];" vertex="1" connectable="0" parent="bBV2W6COJ8ChpkD-p2IN-1">
          <mxGeometry x="-0.7221" y="2" relative="1" as="geometry">
            <mxPoint y="-9" as="offset" />
          </mxGeometry>
        </mxCell>
        <mxCell id="bBV2W6COJ8ChpkD-p2IN-3" value="Recargar en 1 &lt;font&gt;permite entradas nuevas de inicial y final, y pausa el contador&lt;/font&gt;" style="text;html=1;align=center;verticalAlign=middle;whiteSpace=wrap;rounded=0;fontSize=10;" vertex="1" parent="1">
          <mxGeometry x="10" y="470" width="130" height="60" as="geometry" />
        </mxCell>
        <mxCell id="eIWCXgcP_1NBXLaPXit3-1" style="edgeStyle=orthogonalEdgeStyle;rounded=0;orthogonalLoop=1;jettySize=auto;html=1;" edge="1" parent="1" target="XcIXjamz96Wju4GIK8jk-1">
          <mxGeometry relative="1" as="geometry">
            <mxPoint x="343" y="360" as="targetPoint" />
            <mxPoint x="180" y="360" as="sourcePoint" />
            <Array as="points">
              <mxPoint x="363" y="360" />
            </Array>
          </mxGeometry>
        </mxCell>
        <mxCell id="eIWCXgcP_1NBXLaPXit3-2" value="CLOCK" style="edgeLabel;html=1;align=center;verticalAlign=middle;resizable=0;points=[];" vertex="1" connectable="0" parent="eIWCXgcP_1NBXLaPXit3-1">
          <mxGeometry x="-0.7221" y="2" relative="1" as="geometry">
            <mxPoint y="-8" as="offset" />
          </mxGeometry>
        </mxCell>
        <mxCell id="eIWCXgcP_1NBXLaPXit3-3" value="" style="shape=flexArrow;endArrow=classic;startArrow=classic;html=1;rounded=0;width=5.348837209302326;endSize=3.5813953488372094;endWidth=10.151433207138995;startWidth=10.151433207138995;startSize=3.5813953488372094;" edge="1" parent="1">
          <mxGeometry width="100" height="100" relative="1" as="geometry">
            <mxPoint x="360" y="232" as="sourcePoint" />
            <mxPoint x="360" y="172" as="targetPoint" />
          </mxGeometry>
        </mxCell>
        <mxCell id="eIWCXgcP_1NBXLaPXit3-4" value="" style="shape=flexArrow;endArrow=none;startArrow=classic;html=1;rounded=0;width=5.348837209302326;endSize=3.5813953488372094;endWidth=10.151433207138995;startWidth=10.151433207138995;startSize=3.5813953488372094;entryX=0.998;entryY=0.592;entryDx=0;entryDy=0;entryPerimeter=0;endFill=0;" edge="1" parent="1" target="XcIXjamz96Wju4GIK8jk-1">
          <mxGeometry width="100" height="100" relative="1" as="geometry">
            <mxPoint x="408" y="450" as="sourcePoint" />
            <mxPoint x="500" y="280" as="targetPoint" />
            <Array as="points">
              <mxPoint x="490" y="450" />
              <mxPoint x="490" y="290" />
            </Array>
          </mxGeometry>
        </mxCell>
        <mxCell id="RJaNBe9GBajVhweieXDL-2" value="valor_final" style="edgeLabel;html=1;align=center;verticalAlign=middle;resizable=0;points=[];" vertex="1" connectable="0" parent="eIWCXgcP_1NBXLaPXit3-4">
          <mxGeometry x="0.2895" relative="1" as="geometry">
            <mxPoint x="30" as="offset" />
          </mxGeometry>
        </mxCell>
        <mxCell id="eIWCXgcP_1NBXLaPXit3-5" value="" style="shape=flexArrow;endArrow=none;startArrow=classic;html=1;rounded=0;width=5.348837209302326;endSize=3.5813953488372094;endWidth=10.151433207138995;startWidth=10.151433207138995;startSize=3.5813953488372094;entryX=0.998;entryY=0.792;entryDx=0;entryDy=0;entryPerimeter=0;endFill=0;" edge="1" parent="1" target="XcIXjamz96Wju4GIK8jk-1">
          <mxGeometry width="100" height="100" relative="1" as="geometry">
            <mxPoint x="408" y="430" as="sourcePoint" />
            <mxPoint x="418" y="307" as="targetPoint" />
            <Array as="points">
              <mxPoint x="468" y="430" />
              <mxPoint x="468" y="310" />
            </Array>
          </mxGeometry>
        </mxCell>
        <mxCell id="RJaNBe9GBajVhweieXDL-1" value="valor_actual" style="edgeLabel;html=1;align=center;verticalAlign=middle;resizable=0;points=[];" vertex="1" connectable="0" parent="eIWCXgcP_1NBXLaPXit3-5">
          <mxGeometry x="0.1742" y="1" relative="1" as="geometry">
            <mxPoint x="-33" y="10" as="offset" />
          </mxGeometry>
        </mxCell>
        <mxCell id="SvtaXBTlDBFVcZGNNkYO-1" style="edgeStyle=orthogonalEdgeStyle;rounded=0;orthogonalLoop=1;jettySize=auto;html=1;exitX=1;exitY=0.5;exitDx=0;exitDy=0;entryX=0;entryY=0.5;entryDx=0;entryDy=0;" edge="1" parent="1">
          <mxGeometry relative="1" as="geometry">
            <mxPoint x="408" y="500" as="sourcePoint" />
            <mxPoint x="513" y="500" as="targetPoint" />
          </mxGeometry>
        </mxCell>
        <mxCell id="iaG5Alr3QgaLqESfKX0B-7" value="b0" style="edgeLabel;html=1;align=center;verticalAlign=middle;resizable=0;points=[];" vertex="1" connectable="0" parent="SvtaXBTlDBFVcZGNNkYO-1">
          <mxGeometry x="0.008" y="1" relative="1" as="geometry">
            <mxPoint x="2" as="offset" />
          </mxGeometry>
        </mxCell>
        <mxCell id="SvtaXBTlDBFVcZGNNkYO-2" style="edgeStyle=orthogonalEdgeStyle;rounded=0;orthogonalLoop=1;jettySize=auto;html=1;exitX=1;exitY=0.5;exitDx=0;exitDy=0;entryX=0;entryY=0.5;entryDx=0;entryDy=0;" edge="1" parent="1">
          <mxGeometry relative="1" as="geometry">
            <mxPoint x="408" y="484.76" as="sourcePoint" />
            <mxPoint x="513" y="484.76" as="targetPoint" />
          </mxGeometry>
        </mxCell>
        <mxCell id="iaG5Alr3QgaLqESfKX0B-6" value="b1" style="edgeLabel;html=1;align=center;verticalAlign=middle;resizable=0;points=[];" vertex="1" connectable="0" parent="SvtaXBTlDBFVcZGNNkYO-2">
          <mxGeometry x="0.0488" y="1" relative="1" as="geometry">
            <mxPoint as="offset" />
          </mxGeometry>
        </mxCell>
        <mxCell id="SvtaXBTlDBFVcZGNNkYO-3" value="" style="shape=flexArrow;endArrow=none;startArrow=classic;html=1;rounded=0;width=5.348837209302326;endSize=3.5813953488372094;endWidth=10.151433207138995;startWidth=10.151433207138995;startSize=3.5813953488372094;endFill=0;exitX=-0.004;exitY=0.692;exitDx=0;exitDy=0;exitPerimeter=0;entryX=0.996;entryY=0.602;entryDx=0;entryDy=0;entryPerimeter=0;" edge="1" parent="1" source="5YCoUz0_5GFnxVRF15zM-1" target="ioLFR17E4ViIQYoxCpSj-49">
          <mxGeometry width="100" height="100" relative="1" as="geometry">
            <mxPoint x="440" y="610" as="sourcePoint" />
            <mxPoint x="410" y="520" as="targetPoint" />
            <Array as="points">
              <mxPoint x="480" y="520" />
              <mxPoint x="460" y="520" />
            </Array>
          </mxGeometry>
        </mxCell>
        <mxCell id="iaG5Alr3QgaLqESfKX0B-8" value="valor_actual" style="edgeLabel;html=1;align=center;verticalAlign=middle;resizable=0;points=[];" vertex="1" connectable="0" parent="SvtaXBTlDBFVcZGNNkYO-3">
          <mxGeometry x="0.2217" y="2" relative="1" as="geometry">
            <mxPoint x="12" y="-12" as="offset" />
          </mxGeometry>
        </mxCell>
        <mxCell id="iaG5Alr3QgaLqESfKX0B-4" value="" style="endArrow=none;html=1;rounded=0;strokeColor=#FFFFFF;strokeWidth=5;" edge="1" parent="1">
          <mxGeometry width="50" height="50" relative="1" as="geometry">
            <mxPoint x="691" y="482" as="sourcePoint" />
            <mxPoint x="691" y="475" as="targetPoint" />
          </mxGeometry>
        </mxCell>
        <mxCell id="RJaNBe9GBajVhweieXDL-3" style="edgeStyle=orthogonalEdgeStyle;rounded=0;orthogonalLoop=1;jettySize=auto;html=1;" edge="1" parent="1" target="5YCoUz0_5GFnxVRF15zM-1">
          <mxGeometry relative="1" as="geometry">
            <mxPoint x="690" y="620" as="targetPoint" />
            <mxPoint x="600" y="620" as="sourcePoint" />
            <Array as="points">
              <mxPoint x="600" y="580" />
              <mxPoint x="600" y="580" />
            </Array>
          </mxGeometry>
        </mxCell>
        <mxCell id="RJaNBe9GBajVhweieXDL-4" value="CLOCK" style="edgeLabel;html=1;align=center;verticalAlign=middle;resizable=0;points=[];" vertex="1" connectable="0" parent="RJaNBe9GBajVhweieXDL-3">
          <mxGeometry x="-0.7221" y="2" relative="1" as="geometry">
            <mxPoint x="22" y="16" as="offset" />
          </mxGeometry>
        </mxCell>
        <mxCell id="RJaNBe9GBajVhweieXDL-5" value="este clock se encarga de que data A y B entren al mismo tiempo" style="text;html=1;align=center;verticalAlign=middle;whiteSpace=wrap;rounded=0;fontSize=10;" vertex="1" parent="1">
          <mxGeometry x="648" y="610" width="120" height="40" as="geometry" />
        </mxCell>
        <mxCell id="RJaNBe9GBajVhweieXDL-7" value="" style="endArrow=classic;html=1;rounded=0;shape=flexArrow;entryX=0.435;entryY=-0.003;entryDx=0;entryDy=0;entryPerimeter=0;width=5.142857142857143;endSize=4.851428571428571;endWidth=17.06122448979592;" edge="1" parent="1" target="ioLFR17E4ViIQYoxCpSj-53">
          <mxGeometry width="50" height="50" relative="1" as="geometry">
            <mxPoint x="490" y="290" as="sourcePoint" />
            <mxPoint x="830" y="290" as="targetPoint" />
            <Array as="points">
              <mxPoint x="820" y="290" />
            </Array>
          </mxGeometry>
        </mxCell>
        <mxCell id="RJaNBe9GBajVhweieXDL-9" value="acordate de meter el ff tipo D para atrasar FIN un ciclo de reloj" style="text;html=1;align=center;verticalAlign=middle;whiteSpace=wrap;rounded=0;fontSize=10;" vertex="1" parent="1">
          <mxGeometry x="940" y="520" width="100" height="50" as="geometry" />
        </mxCell>
        <mxCell id="Jd9hhqW-ZyEvctdgGlja-1" value="__" style="text;html=1;align=center;verticalAlign=middle;whiteSpace=wrap;rounded=0;" vertex="1" parent="1">
          <mxGeometry x="500" y="600" width="60" height="30" as="geometry" />
        </mxCell>
        <mxCell id="fYO2-uZOYxjmwseDHLf8-1" value="SEGUIR" style="endArrow=classic;html=1;rounded=0;exitX=0.987;exitY=0.369;exitDx=0;exitDy=0;exitPerimeter=0;" edge="1" parent="1">
          <mxGeometry x="0.0196" y="10" width="50" height="50" relative="1" as="geometry">
            <mxPoint x="408" y="550" as="sourcePoint" />
            <mxPoint x="510" y="550" as="targetPoint" />
            <mxPoint as="offset" />
          </mxGeometry>
        </mxCell>
      </root>
    </mxGraphModel>
  </diagram>
  <diagram id="-9ecnvkPbBYXrfcMg7Aq" name="Memoria">
    <mxGraphModel dx="2022" dy="1105" grid="1" gridSize="10" guides="1" tooltips="1" connect="1" arrows="1" fold="1" page="1" pageScale="1" pageWidth="1100" pageHeight="850" math="0" shadow="0">
      <root>
        <mxCell id="0" />
        <mxCell id="1" parent="0" />
        <mxCell id="6mQ-U_xuzIxeXKG_kCUv-41" value="" style="rounded=0;whiteSpace=wrap;html=1;" vertex="1" parent="1">
          <mxGeometry x="348" y="310" width="180" height="250" as="geometry" />
        </mxCell>
        <mxCell id="aTUoutm64uzHGiJH4FS_-43" value="MEMORIA" style="text;html=1;align=center;verticalAlign=middle;whiteSpace=wrap;rounded=0;fontSize=32;labelBackgroundColor=light-dark(#e4d3d3, #ededed);" parent="1" vertex="1">
          <mxGeometry x="470" y="20" width="160" height="60" as="geometry" />
        </mxCell>
        <mxCell id="aTUoutm64uzHGiJH4FS_-44" style="edgeStyle=orthogonalEdgeStyle;rounded=0;orthogonalLoop=1;jettySize=auto;html=1;" parent="1" edge="1">
          <mxGeometry relative="1" as="geometry">
            <mxPoint x="348" y="394.82" as="targetPoint" />
            <mxPoint x="258" y="394.82" as="sourcePoint" />
          </mxGeometry>
        </mxCell>
        <mxCell id="aTUoutm64uzHGiJH4FS_-45" value="LOAD_I" style="edgeLabel;html=1;align=center;verticalAlign=middle;resizable=0;points=[];" parent="aTUoutm64uzHGiJH4FS_-44" vertex="1" connectable="0">
          <mxGeometry x="-0.7221" y="2" relative="1" as="geometry">
            <mxPoint x="8" y="-11" as="offset" />
          </mxGeometry>
        </mxCell>
        <mxCell id="aTUoutm64uzHGiJH4FS_-46" style="edgeStyle=orthogonalEdgeStyle;rounded=0;orthogonalLoop=1;jettySize=auto;html=1;" parent="1" edge="1">
          <mxGeometry relative="1" as="geometry">
            <mxPoint x="348" y="458.82" as="targetPoint" />
            <mxPoint x="258" y="458.82" as="sourcePoint" />
            <Array as="points">
              <mxPoint x="308" y="458.82" />
              <mxPoint x="308" y="458.82" />
            </Array>
          </mxGeometry>
        </mxCell>
        <mxCell id="aTUoutm64uzHGiJH4FS_-47" value="LOAD_F" style="edgeLabel;html=1;align=center;verticalAlign=middle;resizable=0;points=[];" parent="aTUoutm64uzHGiJH4FS_-46" vertex="1" connectable="0">
          <mxGeometry x="-0.7221" y="2" relative="1" as="geometry">
            <mxPoint x="8" y="-9" as="offset" />
          </mxGeometry>
        </mxCell>
        <mxCell id="aTUoutm64uzHGiJH4FS_-48" value="" style="shape=flexArrow;endArrow=classic;startArrow=classic;html=1;rounded=0;width=26.666666666666668;endSize=13.521212121212121;endWidth=31.11111111111111;startSize=14.733333333333333;startWidth=38.98989898989899;" parent="1" edge="1">
          <mxGeometry width="100" height="100" relative="1" as="geometry">
            <mxPoint x="313" y="230" as="sourcePoint" />
            <mxPoint x="963" y="230" as="targetPoint" />
            <Array as="points">
              <mxPoint x="563" y="230" />
              <mxPoint x="753" y="230" />
            </Array>
          </mxGeometry>
        </mxCell>
        <mxCell id="aTUoutm64uzHGiJH4FS_-49" value="DATA[11..0]" style="edgeLabel;html=1;align=center;verticalAlign=middle;resizable=0;points=[];" parent="aTUoutm64uzHGiJH4FS_-48" vertex="1" connectable="0">
          <mxGeometry x="-0.095" y="-1" relative="1" as="geometry">
            <mxPoint x="13" y="-1" as="offset" />
          </mxGeometry>
        </mxCell>
        <mxCell id="aTUoutm64uzHGiJH4FS_-51" value="registro de 12 bits con valor inicial, y registro de 12 bits del valor final" style="text;html=1;align=center;verticalAlign=middle;whiteSpace=wrap;rounded=0;fontSize=9;" parent="1" vertex="1">
          <mxGeometry x="148" y="250" width="100" height="50" as="geometry" />
        </mxCell>
        <mxCell id="aTUoutm64uzHGiJH4FS_-52" value="" style="endArrow=classic;startArrow=classic;html=1;rounded=0;shape=flexArrow;exitX=0.283;exitY=0;exitDx=0;exitDy=0;exitPerimeter=0;width=10;endSize=4.151219512195122;endWidth=12.439024390243903;startWidth=12.439024390243903;startSize=4.151219512195122;" parent="1" edge="1">
          <mxGeometry width="50" height="50" relative="1" as="geometry">
            <mxPoint x="438.02000000000004" y="310" as="sourcePoint" />
            <mxPoint x="437.58" y="242" as="targetPoint" />
            <Array as="points">
              <mxPoint x="438.08" y="280" />
            </Array>
          </mxGeometry>
        </mxCell>
        <mxCell id="aTUoutm64uzHGiJH4FS_-54" value="REG_ACTUAL" style="rounded=1;whiteSpace=wrap;html=1;" parent="1" vertex="1">
          <mxGeometry x="378" y="340" width="120" height="40" as="geometry" />
        </mxCell>
        <mxCell id="aTUoutm64uzHGiJH4FS_-55" value="REG_INICIAL" style="rounded=1;whiteSpace=wrap;html=1;" parent="1" vertex="1">
          <mxGeometry x="378" y="420" width="120" height="40" as="geometry" />
        </mxCell>
        <mxCell id="aTUoutm64uzHGiJH4FS_-56" value="REG_FINAL" style="rounded=1;whiteSpace=wrap;html=1;" parent="1" vertex="1">
          <mxGeometry x="378" y="500" width="120" height="40" as="geometry" />
        </mxCell>
        <mxCell id="I_HjGXTSfkhWieu02LFZ-1" value="funciones del data:&lt;br&gt;- carga el valor inicial&lt;div&gt;- carga el valor final&lt;/div&gt;&lt;div&gt;- le cargan el valor actual de la suma&lt;/div&gt;" style="text;html=1;align=left;verticalAlign=middle;whiteSpace=wrap;rounded=0;fontSize=9;" parent="1" vertex="1">
          <mxGeometry x="363" y="160" width="160" height="50" as="geometry" />
        </mxCell>
        <mxCell id="pu0M9ehR6o7AOuRwu4nf-1" style="edgeStyle=orthogonalEdgeStyle;rounded=0;orthogonalLoop=1;jettySize=auto;html=1;" edge="1" parent="1">
          <mxGeometry relative="1" as="geometry">
            <mxPoint x="348" y="340.06" as="targetPoint" />
            <mxPoint x="220" y="340.06" as="sourcePoint" />
            <Array as="points">
              <mxPoint x="278" y="340.06" />
            </Array>
          </mxGeometry>
        </mxCell>
        <object label="RECARGAR" id="pu0M9ehR6o7AOuRwu4nf-2">
          <mxCell style="edgeLabel;html=1;align=center;verticalAlign=middle;resizable=0;points=[];" vertex="1" connectable="0" parent="pu0M9ehR6o7AOuRwu4nf-1">
            <mxGeometry x="-0.7221" y="2" relative="1" as="geometry">
              <mxPoint x="19" y="-9" as="offset" />
            </mxGeometry>
          </mxCell>
        </object>
        <mxCell id="gCRSl_jX3Uxvrw-nSxSE-1" style="edgeStyle=orthogonalEdgeStyle;rounded=0;orthogonalLoop=1;jettySize=auto;html=1;" edge="1" parent="1">
          <mxGeometry relative="1" as="geometry">
            <mxPoint x="431" y="560" as="targetPoint" />
            <mxPoint x="248" y="590" as="sourcePoint" />
            <Array as="points">
              <mxPoint x="431" y="590" />
            </Array>
          </mxGeometry>
        </mxCell>
        <mxCell id="gCRSl_jX3Uxvrw-nSxSE-2" value="CLOCK" style="edgeLabel;html=1;align=center;verticalAlign=middle;resizable=0;points=[];" vertex="1" connectable="0" parent="gCRSl_jX3Uxvrw-nSxSE-1">
          <mxGeometry x="-0.7221" y="2" relative="1" as="geometry">
            <mxPoint y="-8" as="offset" />
          </mxGeometry>
        </mxCell>
        <mxCell id="gCRSl_jX3Uxvrw-nSxSE-3" value="LOAD_I=1 and LOAD_F=1 estado inalcanzable" style="text;html=1;align=center;verticalAlign=middle;whiteSpace=wrap;rounded=0;fontSize=10;" vertex="1" parent="1">
          <mxGeometry x="138" y="400" width="100" height="40" as="geometry" />
        </mxCell>
        <mxCell id="gCRSl_jX3Uxvrw-nSxSE-5" value="" style="shape=flexArrow;endArrow=classic;html=1;rounded=0;" edge="1" parent="1">
          <mxGeometry width="50" height="50" relative="1" as="geometry">
            <mxPoint x="768" y="370" as="sourcePoint" />
            <mxPoint x="528" y="370" as="targetPoint" />
          </mxGeometry>
        </mxCell>
        <mxCell id="gCRSl_jX3Uxvrw-nSxSE-6" value="valor_actual" style="edgeLabel;html=1;align=center;verticalAlign=middle;resizable=0;points=[];" vertex="1" connectable="0" parent="gCRSl_jX3Uxvrw-nSxSE-5">
          <mxGeometry x="0.0905" y="2" relative="1" as="geometry">
            <mxPoint x="11" y="-22" as="offset" />
          </mxGeometry>
        </mxCell>
        <mxCell id="gCRSl_jX3Uxvrw-nSxSE-7" value="" style="shape=flexArrow;endArrow=classic;html=1;rounded=0;" edge="1" parent="1">
          <mxGeometry width="50" height="50" relative="1" as="geometry">
            <mxPoint x="528" y="434.58" as="sourcePoint" />
            <mxPoint x="768" y="434.58" as="targetPoint" />
          </mxGeometry>
        </mxCell>
        <mxCell id="gCRSl_jX3Uxvrw-nSxSE-8" value="valor_inicial" style="edgeLabel;html=1;align=center;verticalAlign=middle;resizable=0;points=[];" vertex="1" connectable="0" parent="gCRSl_jX3Uxvrw-nSxSE-7">
          <mxGeometry x="0.0905" y="2" relative="1" as="geometry">
            <mxPoint x="-11" y="-22" as="offset" />
          </mxGeometry>
        </mxCell>
        <mxCell id="gCRSl_jX3Uxvrw-nSxSE-9" value="" style="shape=flexArrow;endArrow=classic;html=1;rounded=0;" edge="1" parent="1">
          <mxGeometry width="50" height="50" relative="1" as="geometry">
            <mxPoint x="528" y="500" as="sourcePoint" />
            <mxPoint x="768" y="500" as="targetPoint" />
          </mxGeometry>
        </mxCell>
        <mxCell id="gCRSl_jX3Uxvrw-nSxSE-10" value="valor_final" style="edgeLabel;html=1;align=center;verticalAlign=middle;resizable=0;points=[];" vertex="1" connectable="0" parent="gCRSl_jX3Uxvrw-nSxSE-9">
          <mxGeometry x="0.0905" y="2" relative="1" as="geometry">
            <mxPoint x="-11" y="-22" as="offset" />
          </mxGeometry>
        </mxCell>
      </root>
    </mxGraphModel>
  </diagram>
  <diagram id="Imw-j2lDpRGIrovR1meU" name="LÃ³gicaDeControl">
    <mxGraphModel dx="693" dy="379" grid="1" gridSize="10" guides="1" tooltips="1" connect="1" arrows="1" fold="1" page="1" pageScale="1" pageWidth="1100" pageHeight="850" math="0" shadow="0">
      <root>
        <mxCell id="0" />
        <mxCell id="1" parent="0" />
        <mxCell id="g6_Yi6iXiShOUM3Xabi7-1" value="LÃGICA DE CONTROL" style="text;html=1;align=center;verticalAlign=middle;whiteSpace=wrap;rounded=0;fontSize=32;labelBackgroundColor=light-dark(#e4d3d3, #ededed);" vertex="1" parent="1">
          <mxGeometry x="340" y="10" width="420" height="60" as="geometry" />
        </mxCell>
        <mxCell id="l-lV2bE-uu0mC1iwyiuy-1" value="valor_actual" style="edgeStyle=orthogonalEdgeStyle;rounded=0;orthogonalLoop=1;jettySize=auto;html=1;shape=flexArrow;width=7.2;endSize=4.112;endWidth=11.92;exitX=1.001;exitY=0.397;exitDx=0;exitDy=0;exitPerimeter=0;" edge="1" parent="1" source="l-lV2bE-uu0mC1iwyiuy-2" target="l-lV2bE-uu0mC1iwyiuy-31">
          <mxGeometry x="-0.1455" y="-42" relative="1" as="geometry">
            <mxPoint x="708" y="670" as="targetPoint" />
            <mxPoint x="665" y="980" as="sourcePoint" />
            <mxPoint as="offset" />
            <Array as="points">
              <mxPoint x="713" y="970" />
              <mxPoint x="713" y="760" />
            </Array>
          </mxGeometry>
        </mxCell>
        <mxCell id="l-lV2bE-uu0mC1iwyiuy-2" value="SUMADOR" style="rounded=1;whiteSpace=wrap;html=1;" vertex="1" parent="1">
          <mxGeometry x="538" y="920" width="120" height="110" as="geometry" />
        </mxCell>
        <mxCell id="l-lV2bE-uu0mC1iwyiuy-3" style="edgeStyle=orthogonalEdgeStyle;rounded=0;orthogonalLoop=1;jettySize=auto;html=1;" edge="1" parent="1">
          <mxGeometry relative="1" as="geometry">
            <mxPoint x="333" y="770.71" as="targetPoint" />
            <mxPoint x="243" y="770.71" as="sourcePoint" />
          </mxGeometry>
        </mxCell>
        <mxCell id="l-lV2bE-uu0mC1iwyiuy-4" value="LOAD_I" style="edgeLabel;html=1;align=center;verticalAlign=middle;resizable=0;points=[];" vertex="1" connectable="0" parent="l-lV2bE-uu0mC1iwyiuy-3">
          <mxGeometry x="-0.7221" y="2" relative="1" as="geometry">
            <mxPoint x="8" y="-11" as="offset" />
          </mxGeometry>
        </mxCell>
        <mxCell id="l-lV2bE-uu0mC1iwyiuy-5" style="edgeStyle=orthogonalEdgeStyle;rounded=0;orthogonalLoop=1;jettySize=auto;html=1;" edge="1" parent="1">
          <mxGeometry relative="1" as="geometry">
            <mxPoint x="333" y="800" as="targetPoint" />
            <mxPoint x="243" y="800" as="sourcePoint" />
            <Array as="points">
              <mxPoint x="293" y="800" />
              <mxPoint x="293" y="800" />
            </Array>
          </mxGeometry>
        </mxCell>
        <mxCell id="l-lV2bE-uu0mC1iwyiuy-6" value="LOAD_F" style="edgeLabel;html=1;align=center;verticalAlign=middle;resizable=0;points=[];" vertex="1" connectable="0" parent="l-lV2bE-uu0mC1iwyiuy-5">
          <mxGeometry x="-0.7221" y="2" relative="1" as="geometry">
            <mxPoint x="8" y="-9" as="offset" />
          </mxGeometry>
        </mxCell>
        <mxCell id="l-lV2bE-uu0mC1iwyiuy-7" style="edgeStyle=orthogonalEdgeStyle;rounded=0;orthogonalLoop=1;jettySize=auto;html=1;" edge="1" parent="1" target="l-lV2bE-uu0mC1iwyiuy-18">
          <mxGeometry relative="1" as="geometry">
            <mxPoint x="318" y="951.5699999999999" as="targetPoint" />
            <mxPoint x="238" y="951.5699999999999" as="sourcePoint" />
            <Array as="points">
              <mxPoint x="275" y="952" />
              <mxPoint x="275" y="952" />
            </Array>
          </mxGeometry>
        </mxCell>
        <mxCell id="l-lV2bE-uu0mC1iwyiuy-8" value="b1" style="edgeLabel;html=1;align=center;verticalAlign=middle;resizable=0;points=[];" vertex="1" connectable="0" parent="l-lV2bE-uu0mC1iwyiuy-7">
          <mxGeometry x="-0.7221" y="2" relative="1" as="geometry">
            <mxPoint y="-9" as="offset" />
          </mxGeometry>
        </mxCell>
        <mxCell id="l-lV2bE-uu0mC1iwyiuy-9" style="edgeStyle=orthogonalEdgeStyle;rounded=0;orthogonalLoop=1;jettySize=auto;html=1;" edge="1" parent="1" target="l-lV2bE-uu0mC1iwyiuy-18">
          <mxGeometry relative="1" as="geometry">
            <mxPoint x="318" y="930" as="targetPoint" />
            <mxPoint x="238" y="930" as="sourcePoint" />
            <Array as="points">
              <mxPoint x="255" y="930" />
              <mxPoint x="255" y="930" />
            </Array>
          </mxGeometry>
        </mxCell>
        <mxCell id="l-lV2bE-uu0mC1iwyiuy-10" value="b2" style="edgeLabel;html=1;align=center;verticalAlign=middle;resizable=0;points=[];" vertex="1" connectable="0" parent="l-lV2bE-uu0mC1iwyiuy-9">
          <mxGeometry x="-0.7221" y="2" relative="1" as="geometry">
            <mxPoint y="-9" as="offset" />
          </mxGeometry>
        </mxCell>
        <mxCell id="l-lV2bE-uu0mC1iwyiuy-11" style="edgeStyle=orthogonalEdgeStyle;rounded=0;orthogonalLoop=1;jettySize=auto;html=1;" edge="1" parent="1">
          <mxGeometry relative="1" as="geometry">
            <mxPoint x="584" y="1030" as="targetPoint" />
            <mxPoint x="583.73" y="1110" as="sourcePoint" />
            <Array as="points" />
          </mxGeometry>
        </mxCell>
        <mxCell id="l-lV2bE-uu0mC1iwyiuy-12" value="UP/DOWN" style="edgeLabel;html=1;align=center;verticalAlign=middle;resizable=0;points=[];" vertex="1" connectable="0" parent="l-lV2bE-uu0mC1iwyiuy-11">
          <mxGeometry x="-0.7221" y="2" relative="1" as="geometry">
            <mxPoint x="-8" y="17" as="offset" />
          </mxGeometry>
        </mxCell>
        <mxCell id="l-lV2bE-uu0mC1iwyiuy-13" value="" style="shape=flexArrow;endArrow=classic;startArrow=classic;html=1;rounded=0;width=26.666666666666668;endSize=13.521212121212121;endWidth=31.11111111111111;startSize=14.733333333333333;startWidth=38.98989898989899;" edge="1" parent="1">
          <mxGeometry width="100" height="100" relative="1" as="geometry">
            <mxPoint x="303" y="650" as="sourcePoint" />
            <mxPoint x="953" y="650" as="targetPoint" />
            <Array as="points">
              <mxPoint x="553" y="650" />
              <mxPoint x="743" y="650" />
            </Array>
          </mxGeometry>
        </mxCell>
        <mxCell id="l-lV2bE-uu0mC1iwyiuy-14" value="DATA[11..0]" style="edgeLabel;html=1;align=center;verticalAlign=middle;resizable=0;points=[];" vertex="1" connectable="0" parent="l-lV2bE-uu0mC1iwyiuy-13">
          <mxGeometry x="-0.095" y="-1" relative="1" as="geometry">
            <mxPoint x="13" y="-1" as="offset" />
          </mxGeometry>
        </mxCell>
        <mxCell id="l-lV2bE-uu0mC1iwyiuy-15" style="edgeStyle=orthogonalEdgeStyle;rounded=0;orthogonalLoop=1;jettySize=auto;html=1;exitX=1;exitY=0.5;exitDx=0;exitDy=0;" edge="1" parent="1">
          <mxGeometry relative="1" as="geometry">
            <mxPoint x="433.0000000000001" y="960" as="sourcePoint" />
            <mxPoint x="538" y="960.0243902439025" as="targetPoint" />
            <Array as="points">
              <mxPoint x="515" y="960" />
              <mxPoint x="515" y="960" />
            </Array>
          </mxGeometry>
        </mxCell>
        <mxCell id="l-lV2bE-uu0mC1iwyiuy-16" value="b2" style="edgeLabel;html=1;align=center;verticalAlign=middle;resizable=0;points=[];" vertex="1" connectable="0" parent="l-lV2bE-uu0mC1iwyiuy-15">
          <mxGeometry x="0.0352" relative="1" as="geometry">
            <mxPoint as="offset" />
          </mxGeometry>
        </mxCell>
        <mxCell id="l-lV2bE-uu0mC1iwyiuy-17" value="PAUSA" style="edgeStyle=orthogonalEdgeStyle;rounded=0;orthogonalLoop=1;jettySize=auto;html=1;exitX=0.5;exitY=1;exitDx=0;exitDy=0;" edge="1" parent="1">
          <mxGeometry x="0.0076" y="19" relative="1" as="geometry">
            <mxPoint x="362.79999999999995" y="1170" as="targetPoint" />
            <Array as="points">
              <mxPoint x="362.86" y="1110" />
              <mxPoint x="362.86" y="1110" />
            </Array>
            <mxPoint y="-1" as="offset" />
            <mxPoint x="362.86" y="1090" as="sourcePoint" />
          </mxGeometry>
        </mxCell>
        <mxCell id="l-lV2bE-uu0mC1iwyiuy-18" value="LÃGICA DE CONTROL" style="rounded=1;whiteSpace=wrap;html=1;" vertex="1" parent="1">
          <mxGeometry x="293" y="890" width="140" height="200" as="geometry" />
        </mxCell>
        <mxCell id="l-lV2bE-uu0mC1iwyiuy-19" value="" style="endArrow=classic;html=1;rounded=0;entryX=0;entryY=0.5;entryDx=0;entryDy=0;shape=flexArrow;width=8.539325842696629;endSize=5.324719101123596;endWidth=7.75013520822066;" edge="1" parent="1">
          <mxGeometry width="50" height="50" relative="1" as="geometry">
            <mxPoint x="716" y="969" as="sourcePoint" />
            <mxPoint x="794" y="969" as="targetPoint" />
          </mxGeometry>
        </mxCell>
        <mxCell id="l-lV2bE-uu0mC1iwyiuy-20" value="FIN" style="edgeStyle=orthogonalEdgeStyle;rounded=0;orthogonalLoop=1;jettySize=auto;html=1;" edge="1" parent="1" target="l-lV2bE-uu0mC1iwyiuy-18">
          <mxGeometry x="0.1429" y="10" relative="1" as="geometry">
            <mxPoint x="185" y="1050" as="targetPoint" />
            <Array as="points">
              <mxPoint x="965" y="970" />
              <mxPoint x="965" y="1190" />
              <mxPoint x="185" y="1190" />
              <mxPoint x="185" y="1050" />
            </Array>
            <mxPoint as="offset" />
            <mxPoint x="913" y="969.8" as="sourcePoint" />
          </mxGeometry>
        </mxCell>
        <mxCell id="l-lV2bE-uu0mC1iwyiuy-21" value="ERROR" style="edgeStyle=orthogonalEdgeStyle;rounded=0;orthogonalLoop=1;jettySize=auto;html=1;exitX=0;exitY=1;exitDx=0;exitDy=0;" edge="1" parent="1">
          <mxGeometry x="-0.0006" y="20" relative="1" as="geometry">
            <mxPoint x="313.03" y="1170" as="targetPoint" />
            <mxPoint as="offset" />
            <mxPoint x="313.03" y="1090" as="sourcePoint" />
            <Array as="points">
              <mxPoint x="313.03" y="1170" />
              <mxPoint x="313.03" y="1170" />
            </Array>
          </mxGeometry>
        </mxCell>
        <mxCell id="l-lV2bE-uu0mC1iwyiuy-22" value="COMPARADOR" style="rounded=1;whiteSpace=wrap;html=1;" vertex="1" parent="1">
          <mxGeometry x="793" y="930" width="120" height="80" as="geometry" />
        </mxCell>
        <mxCell id="l-lV2bE-uu0mC1iwyiuy-23" value="comparador del resultado de la suma actual con el valor final" style="text;html=1;align=center;verticalAlign=middle;whiteSpace=wrap;rounded=0;fontSize=9;" vertex="1" parent="1">
          <mxGeometry x="873" y="880" width="100" height="50" as="geometry" />
        </mxCell>
        <mxCell id="l-lV2bE-uu0mC1iwyiuy-24" value="segÃºn el valor del paso para la suma que me manden, puedo estar haciendo una pausa" style="text;html=1;align=center;verticalAlign=middle;whiteSpace=wrap;rounded=0;fontSize=9;" vertex="1" parent="1">
          <mxGeometry x="50" y="880" width="100" height="50" as="geometry" />
        </mxCell>
        <mxCell id="l-lV2bE-uu0mC1iwyiuy-25" value="CONTINUAR" style="endArrow=classic;html=1;rounded=0;entryX=-0.003;entryY=0.6;entryDx=0;entryDy=0;entryPerimeter=0;" edge="1" parent="1" target="l-lV2bE-uu0mC1iwyiuy-18">
          <mxGeometry x="-0.3729" y="10" width="50" height="50" relative="1" as="geometry">
            <mxPoint x="165" y="1010" as="sourcePoint" />
            <mxPoint x="203" y="1030" as="targetPoint" />
            <mxPoint as="offset" />
            <Array as="points">
              <mxPoint x="205" y="1010" />
            </Array>
          </mxGeometry>
        </mxCell>
        <mxCell id="l-lV2bE-uu0mC1iwyiuy-26" style="edgeStyle=orthogonalEdgeStyle;rounded=0;orthogonalLoop=1;jettySize=auto;html=1;" edge="1" parent="1">
          <mxGeometry relative="1" as="geometry">
            <mxPoint x="333" y="737" as="targetPoint" />
            <mxPoint x="205" y="737" as="sourcePoint" />
            <Array as="points">
              <mxPoint x="263" y="737" />
            </Array>
          </mxGeometry>
        </mxCell>
        <object label="RECARGAR" id="l-lV2bE-uu0mC1iwyiuy-27">
          <mxCell style="edgeLabel;html=1;align=center;verticalAlign=middle;resizable=0;points=[];" vertex="1" connectable="0" parent="l-lV2bE-uu0mC1iwyiuy-26">
            <mxGeometry x="-0.7221" y="2" relative="1" as="geometry">
              <mxPoint x="19" y="-9" as="offset" />
            </mxGeometry>
          </mxCell>
        </object>
        <mxCell id="l-lV2bE-uu0mC1iwyiuy-28" style="edgeStyle=orthogonalEdgeStyle;rounded=0;orthogonalLoop=1;jettySize=auto;html=1;" edge="1" parent="1" target="l-lV2bE-uu0mC1iwyiuy-18">
          <mxGeometry relative="1" as="geometry">
            <mxPoint x="318" y="904.5799999999999" as="targetPoint" />
            <mxPoint x="165" y="905" as="sourcePoint" />
            <Array as="points">
              <mxPoint x="205" y="905" />
              <mxPoint x="205" y="905" />
            </Array>
          </mxGeometry>
        </mxCell>
        <object label="START" id="l-lV2bE-uu0mC1iwyiuy-29">
          <mxCell style="edgeLabel;html=1;align=center;verticalAlign=middle;resizable=0;points=[];" vertex="1" connectable="0" parent="l-lV2bE-uu0mC1iwyiuy-28">
            <mxGeometry x="-0.7221" y="2" relative="1" as="geometry">
              <mxPoint x="19" y="-9" as="offset" />
            </mxGeometry>
          </mxCell>
        </object>
        <mxCell id="l-lV2bE-uu0mC1iwyiuy-30" value="" style="endArrow=classic;html=1;rounded=0;entryX=1.002;entryY=0.942;entryDx=0;entryDy=0;entryPerimeter=0;" edge="1" parent="1" target="l-lV2bE-uu0mC1iwyiuy-18">
          <mxGeometry width="50" height="50" relative="1" as="geometry">
            <mxPoint x="585" y="1078" as="sourcePoint" />
            <mxPoint x="633" y="1080" as="targetPoint" />
            <Array as="points" />
          </mxGeometry>
        </mxCell>
        <mxCell id="l-lV2bE-uu0mC1iwyiuy-31" value="MEMORIA" style="rounded=1;whiteSpace=wrap;html=1;" vertex="1" parent="1">
          <mxGeometry x="333" y="722" width="110" height="98" as="geometry" />
        </mxCell>
        <mxCell id="l-lV2bE-uu0mC1iwyiuy-32" value="registro de 12 bits con valor inicial, y registro de 12 bits del valor final" style="text;html=1;align=center;verticalAlign=middle;whiteSpace=wrap;rounded=0;fontSize=9;" vertex="1" parent="1">
          <mxGeometry x="105" y="760" width="100" height="50" as="geometry" />
        </mxCell>
        <mxCell id="l-lV2bE-uu0mC1iwyiuy-33" value="acÃ¡ el data a veces se usa como entrada y a veces como salida" style="text;html=1;align=center;verticalAlign=middle;whiteSpace=wrap;rounded=0;fontSize=9;" vertex="1" parent="1">
          <mxGeometry x="399" y="666" width="139" height="50" as="geometry" />
        </mxCell>
        <mxCell id="l-lV2bE-uu0mC1iwyiuy-34" style="edgeStyle=orthogonalEdgeStyle;rounded=0;orthogonalLoop=1;jettySize=auto;html=1;" edge="1" parent="1" target="l-lV2bE-uu0mC1iwyiuy-18">
          <mxGeometry relative="1" as="geometry">
            <mxPoint x="293" y="969.98" as="targetPoint" />
            <mxPoint x="237" y="969.55" as="sourcePoint" />
            <Array as="points">
              <mxPoint x="275" y="970" />
              <mxPoint x="275" y="970" />
            </Array>
          </mxGeometry>
        </mxCell>
        <mxCell id="l-lV2bE-uu0mC1iwyiuy-35" value="b0" style="edgeLabel;html=1;align=center;verticalAlign=middle;resizable=0;points=[];" vertex="1" connectable="0" parent="l-lV2bE-uu0mC1iwyiuy-34">
          <mxGeometry x="-0.7221" y="2" relative="1" as="geometry">
            <mxPoint y="-9" as="offset" />
          </mxGeometry>
        </mxCell>
        <mxCell id="l-lV2bE-uu0mC1iwyiuy-36" style="edgeStyle=orthogonalEdgeStyle;rounded=0;orthogonalLoop=1;jettySize=auto;html=1;" edge="1" parent="1" target="l-lV2bE-uu0mC1iwyiuy-31">
          <mxGeometry relative="1" as="geometry">
            <mxPoint x="368" y="850" as="targetPoint" />
            <mxPoint x="205" y="850" as="sourcePoint" />
            <Array as="points">
              <mxPoint x="388" y="850" />
            </Array>
          </mxGeometry>
        </mxCell>
        <mxCell id="l-lV2bE-uu0mC1iwyiuy-37" value="CLOCK" style="edgeLabel;html=1;align=center;verticalAlign=middle;resizable=0;points=[];" vertex="1" connectable="0" parent="l-lV2bE-uu0mC1iwyiuy-36">
          <mxGeometry x="-0.7221" y="2" relative="1" as="geometry">
            <mxPoint y="-8" as="offset" />
          </mxGeometry>
        </mxCell>
        <mxCell id="l-lV2bE-uu0mC1iwyiuy-38" value="" style="shape=flexArrow;endArrow=classic;startArrow=classic;html=1;rounded=0;width=5.348837209302326;endSize=3.5813953488372094;endWidth=10.151433207138995;startWidth=10.151433207138995;startSize=3.5813953488372094;" edge="1" parent="1">
          <mxGeometry width="100" height="100" relative="1" as="geometry">
            <mxPoint x="385" y="722" as="sourcePoint" />
            <mxPoint x="385" y="662" as="targetPoint" />
          </mxGeometry>
        </mxCell>
        <mxCell id="l-lV2bE-uu0mC1iwyiuy-39" value="" style="shape=flexArrow;endArrow=none;startArrow=classic;html=1;rounded=0;width=5.348837209302326;endSize=3.5813953488372094;endWidth=10.151433207138995;startWidth=10.151433207138995;startSize=3.5813953488372094;entryX=0.998;entryY=0.592;entryDx=0;entryDy=0;entryPerimeter=0;endFill=0;" edge="1" parent="1" target="l-lV2bE-uu0mC1iwyiuy-31">
          <mxGeometry width="100" height="100" relative="1" as="geometry">
            <mxPoint x="433" y="940" as="sourcePoint" />
            <mxPoint x="525" y="770" as="targetPoint" />
            <Array as="points">
              <mxPoint x="515" y="940" />
              <mxPoint x="515" y="780" />
            </Array>
          </mxGeometry>
        </mxCell>
        <mxCell id="l-lV2bE-uu0mC1iwyiuy-40" value="valor_final" style="edgeLabel;html=1;align=center;verticalAlign=middle;resizable=0;points=[];" vertex="1" connectable="0" parent="l-lV2bE-uu0mC1iwyiuy-39">
          <mxGeometry x="0.2895" relative="1" as="geometry">
            <mxPoint x="30" as="offset" />
          </mxGeometry>
        </mxCell>
        <mxCell id="l-lV2bE-uu0mC1iwyiuy-41" value="" style="shape=flexArrow;endArrow=none;startArrow=classic;html=1;rounded=0;width=5.348837209302326;endSize=3.5813953488372094;endWidth=10.151433207138995;startWidth=10.151433207138995;startSize=3.5813953488372094;entryX=0.998;entryY=0.792;entryDx=0;entryDy=0;entryPerimeter=0;endFill=0;" edge="1" parent="1" target="l-lV2bE-uu0mC1iwyiuy-31">
          <mxGeometry width="100" height="100" relative="1" as="geometry">
            <mxPoint x="433" y="920" as="sourcePoint" />
            <mxPoint x="443" y="797" as="targetPoint" />
            <Array as="points">
              <mxPoint x="493" y="920" />
              <mxPoint x="493" y="800" />
            </Array>
          </mxGeometry>
        </mxCell>
        <mxCell id="l-lV2bE-uu0mC1iwyiuy-42" value="valor_inicial" style="edgeLabel;html=1;align=center;verticalAlign=middle;resizable=0;points=[];" vertex="1" connectable="0" parent="l-lV2bE-uu0mC1iwyiuy-41">
          <mxGeometry x="0.1742" y="1" relative="1" as="geometry">
            <mxPoint x="-33" y="10" as="offset" />
          </mxGeometry>
        </mxCell>
        <mxCell id="l-lV2bE-uu0mC1iwyiuy-43" style="edgeStyle=orthogonalEdgeStyle;rounded=0;orthogonalLoop=1;jettySize=auto;html=1;exitX=1;exitY=0.5;exitDx=0;exitDy=0;entryX=0;entryY=0.5;entryDx=0;entryDy=0;" edge="1" parent="1">
          <mxGeometry relative="1" as="geometry">
            <mxPoint x="433" y="990" as="sourcePoint" />
            <mxPoint x="538" y="990" as="targetPoint" />
          </mxGeometry>
        </mxCell>
        <mxCell id="l-lV2bE-uu0mC1iwyiuy-44" value="b0" style="edgeLabel;html=1;align=center;verticalAlign=middle;resizable=0;points=[];" vertex="1" connectable="0" parent="l-lV2bE-uu0mC1iwyiuy-43">
          <mxGeometry x="0.008" y="1" relative="1" as="geometry">
            <mxPoint x="2" as="offset" />
          </mxGeometry>
        </mxCell>
        <mxCell id="l-lV2bE-uu0mC1iwyiuy-45" style="edgeStyle=orthogonalEdgeStyle;rounded=0;orthogonalLoop=1;jettySize=auto;html=1;exitX=1;exitY=0.5;exitDx=0;exitDy=0;entryX=0;entryY=0.5;entryDx=0;entryDy=0;" edge="1" parent="1">
          <mxGeometry relative="1" as="geometry">
            <mxPoint x="433" y="974.76" as="sourcePoint" />
            <mxPoint x="538" y="974.76" as="targetPoint" />
          </mxGeometry>
        </mxCell>
        <mxCell id="l-lV2bE-uu0mC1iwyiuy-46" value="b1" style="edgeLabel;html=1;align=center;verticalAlign=middle;resizable=0;points=[];" vertex="1" connectable="0" parent="l-lV2bE-uu0mC1iwyiuy-45">
          <mxGeometry x="0.0488" y="1" relative="1" as="geometry">
            <mxPoint as="offset" />
          </mxGeometry>
        </mxCell>
        <mxCell id="l-lV2bE-uu0mC1iwyiuy-47" value="" style="shape=flexArrow;endArrow=none;startArrow=classic;html=1;rounded=0;width=5.348837209302326;endSize=3.5813953488372094;endWidth=10.151433207138995;startWidth=10.151433207138995;startSize=3.5813953488372094;endFill=0;exitX=-0.004;exitY=0.816;exitDx=0;exitDy=0;exitPerimeter=0;entryX=0.996;entryY=0.602;entryDx=0;entryDy=0;entryPerimeter=0;" edge="1" parent="1" source="l-lV2bE-uu0mC1iwyiuy-2" target="l-lV2bE-uu0mC1iwyiuy-18">
          <mxGeometry width="100" height="100" relative="1" as="geometry">
            <mxPoint x="465" y="1100" as="sourcePoint" />
            <mxPoint x="435" y="1010" as="targetPoint" />
            <Array as="points">
              <mxPoint x="505" y="1010" />
              <mxPoint x="485" y="1010" />
            </Array>
          </mxGeometry>
        </mxCell>
        <mxCell id="l-lV2bE-uu0mC1iwyiuy-48" value="valor_inicial" style="edgeLabel;html=1;align=center;verticalAlign=middle;resizable=0;points=[];" vertex="1" connectable="0" parent="l-lV2bE-uu0mC1iwyiuy-47">
          <mxGeometry x="0.2217" y="2" relative="1" as="geometry">
            <mxPoint x="12" y="8" as="offset" />
          </mxGeometry>
        </mxCell>
        <mxCell id="l-lV2bE-uu0mC1iwyiuy-49" value="" style="endArrow=none;html=1;rounded=0;strokeColor=#FFFFFF;strokeWidth=5;" edge="1" parent="1">
          <mxGeometry width="50" height="50" relative="1" as="geometry">
            <mxPoint x="716" y="972" as="sourcePoint" />
            <mxPoint x="716" y="965" as="targetPoint" />
          </mxGeometry>
        </mxCell>
        <mxCell id="l-lV2bE-uu0mC1iwyiuy-50" style="edgeStyle=orthogonalEdgeStyle;rounded=0;orthogonalLoop=1;jettySize=auto;html=1;" edge="1" parent="1" target="l-lV2bE-uu0mC1iwyiuy-2">
          <mxGeometry relative="1" as="geometry">
            <mxPoint x="715" y="1110" as="targetPoint" />
            <mxPoint x="625" y="1110" as="sourcePoint" />
            <Array as="points">
              <mxPoint x="625" y="1070" />
              <mxPoint x="625" y="1070" />
            </Array>
          </mxGeometry>
        </mxCell>
        <mxCell id="l-lV2bE-uu0mC1iwyiuy-51" value="CLOCK" style="edgeLabel;html=1;align=center;verticalAlign=middle;resizable=0;points=[];" vertex="1" connectable="0" parent="l-lV2bE-uu0mC1iwyiuy-50">
          <mxGeometry x="-0.7221" y="2" relative="1" as="geometry">
            <mxPoint x="22" y="16" as="offset" />
          </mxGeometry>
        </mxCell>
        <mxCell id="l-lV2bE-uu0mC1iwyiuy-52" value="este clock se encarga de que data A y B entren al mismo tiempo" style="text;html=1;align=center;verticalAlign=middle;whiteSpace=wrap;rounded=0;fontSize=10;" vertex="1" parent="1">
          <mxGeometry x="615" y="1120" width="120" height="40" as="geometry" />
        </mxCell>
        <mxCell id="l-lV2bE-uu0mC1iwyiuy-53" value="" style="endArrow=classic;html=1;rounded=0;shape=flexArrow;entryX=0.435;entryY=-0.003;entryDx=0;entryDy=0;entryPerimeter=0;width=5.142857142857143;endSize=4.851428571428571;endWidth=17.06122448979592;" edge="1" parent="1" target="l-lV2bE-uu0mC1iwyiuy-22">
          <mxGeometry width="50" height="50" relative="1" as="geometry">
            <mxPoint x="515" y="780" as="sourcePoint" />
            <mxPoint x="855" y="780" as="targetPoint" />
            <Array as="points">
              <mxPoint x="845" y="780" />
            </Array>
          </mxGeometry>
        </mxCell>
        <mxCell id="l-lV2bE-uu0mC1iwyiuy-54" value="acordate de meter el ff tipo D para atrasar FIN un ciclo de reloj" style="text;html=1;align=center;verticalAlign=middle;whiteSpace=wrap;rounded=0;fontSize=10;" vertex="1" parent="1">
          <mxGeometry x="965" y="1010" width="100" height="50" as="geometry" />
        </mxCell>
        <mxCell id="l-lV2bE-uu0mC1iwyiuy-76" value="" style="rounded=0;whiteSpace=wrap;html=1;" vertex="1" parent="1">
          <mxGeometry x="308" y="120" width="273" height="370" as="geometry" />
        </mxCell>
        <mxCell id="l-lV2bE-uu0mC1iwyiuy-77" style="edgeStyle=orthogonalEdgeStyle;rounded=0;orthogonalLoop=1;jettySize=auto;html=1;" edge="1" parent="1" target="r2TukwAJI6tJ12TSGZsX-5">
          <mxGeometry relative="1" as="geometry">
            <mxPoint x="308" y="187" as="targetPoint" />
            <mxPoint x="253" y="186.56999999999994" as="sourcePoint" />
            <Array as="points">
              <mxPoint x="310" y="187" />
              <mxPoint x="310" y="187" />
            </Array>
          </mxGeometry>
        </mxCell>
        <mxCell id="l-lV2bE-uu0mC1iwyiuy-78" value="b1" style="edgeLabel;html=1;align=center;verticalAlign=middle;resizable=0;points=[];" vertex="1" connectable="0" parent="l-lV2bE-uu0mC1iwyiuy-77">
          <mxGeometry x="-0.7221" y="2" relative="1" as="geometry">
            <mxPoint y="-9" as="offset" />
          </mxGeometry>
        </mxCell>
        <mxCell id="l-lV2bE-uu0mC1iwyiuy-79" style="edgeStyle=orthogonalEdgeStyle;rounded=0;orthogonalLoop=1;jettySize=auto;html=1;" edge="1" parent="1" target="r2TukwAJI6tJ12TSGZsX-5">
          <mxGeometry relative="1" as="geometry">
            <mxPoint x="308" y="165" as="targetPoint" />
            <mxPoint x="253" y="166" as="sourcePoint" />
            <Array as="points">
              <mxPoint x="253" y="166" />
            </Array>
          </mxGeometry>
        </mxCell>
        <mxCell id="l-lV2bE-uu0mC1iwyiuy-80" value="b2" style="edgeLabel;html=1;align=center;verticalAlign=middle;resizable=0;points=[];" vertex="1" connectable="0" parent="l-lV2bE-uu0mC1iwyiuy-79">
          <mxGeometry x="-0.7221" y="2" relative="1" as="geometry">
            <mxPoint y="-9" as="offset" />
          </mxGeometry>
        </mxCell>
        <mxCell id="l-lV2bE-uu0mC1iwyiuy-81" value="CONTINUAR" style="endArrow=classic;html=1;rounded=0;" edge="1" parent="1">
          <mxGeometry x="-0.3729" y="10" width="50" height="50" relative="1" as="geometry">
            <mxPoint x="180" y="284.58" as="sourcePoint" />
            <mxPoint x="406" y="284.58" as="targetPoint" />
            <mxPoint as="offset" />
            <Array as="points">
              <mxPoint x="220" y="284.58" />
            </Array>
          </mxGeometry>
        </mxCell>
        <mxCell id="l-lV2bE-uu0mC1iwyiuy-82" style="edgeStyle=orthogonalEdgeStyle;rounded=0;orthogonalLoop=1;jettySize=auto;html=1;" edge="1" parent="1">
          <mxGeometry relative="1" as="geometry">
            <mxPoint x="306.5" y="130" as="targetPoint" />
            <mxPoint x="178.5" y="130" as="sourcePoint" />
            <Array as="points">
              <mxPoint x="218.5" y="130" />
              <mxPoint x="218.5" y="130" />
            </Array>
          </mxGeometry>
        </mxCell>
        <object label="START" id="l-lV2bE-uu0mC1iwyiuy-83">
          <mxCell style="edgeLabel;html=1;align=center;verticalAlign=middle;resizable=0;points=[];" vertex="1" connectable="0" parent="l-lV2bE-uu0mC1iwyiuy-82">
            <mxGeometry x="-0.7221" y="2" relative="1" as="geometry">
              <mxPoint x="19" y="-9" as="offset" />
            </mxGeometry>
          </mxCell>
        </object>
        <mxCell id="l-lV2bE-uu0mC1iwyiuy-84" style="edgeStyle=orthogonalEdgeStyle;rounded=0;orthogonalLoop=1;jettySize=auto;html=1;" edge="1" parent="1" target="r2TukwAJI6tJ12TSGZsX-5">
          <mxGeometry relative="1" as="geometry">
            <mxPoint x="308" y="205" as="targetPoint" />
            <mxPoint x="252" y="204.54999999999995" as="sourcePoint" />
            <Array as="points">
              <mxPoint x="310" y="205" />
              <mxPoint x="310" y="205" />
            </Array>
          </mxGeometry>
        </mxCell>
        <mxCell id="l-lV2bE-uu0mC1iwyiuy-85" value="b0" style="edgeLabel;html=1;align=center;verticalAlign=middle;resizable=0;points=[];" vertex="1" connectable="0" parent="l-lV2bE-uu0mC1iwyiuy-84">
          <mxGeometry x="-0.7221" y="2" relative="1" as="geometry">
            <mxPoint y="-9" as="offset" />
          </mxGeometry>
        </mxCell>
        <mxCell id="l-lV2bE-uu0mC1iwyiuy-86" style="edgeStyle=orthogonalEdgeStyle;rounded=0;orthogonalLoop=1;jettySize=auto;html=1;exitX=1;exitY=0.5;exitDx=0;exitDy=0;" edge="1" parent="1">
          <mxGeometry relative="1" as="geometry">
            <mxPoint x="581.0000000000001" y="209.17000000000002" as="sourcePoint" />
            <mxPoint x="686" y="209.19439024390243" as="targetPoint" />
            <Array as="points">
              <mxPoint x="663" y="209.17000000000002" />
              <mxPoint x="663" y="209.17000000000002" />
            </Array>
          </mxGeometry>
        </mxCell>
        <mxCell id="l-lV2bE-uu0mC1iwyiuy-87" value="b2" style="edgeLabel;html=1;align=center;verticalAlign=middle;resizable=0;points=[];" vertex="1" connectable="0" parent="l-lV2bE-uu0mC1iwyiuy-86">
          <mxGeometry x="0.0352" relative="1" as="geometry">
            <mxPoint as="offset" />
          </mxGeometry>
        </mxCell>
        <mxCell id="l-lV2bE-uu0mC1iwyiuy-88" style="edgeStyle=orthogonalEdgeStyle;rounded=0;orthogonalLoop=1;jettySize=auto;html=1;exitX=1;exitY=0.5;exitDx=0;exitDy=0;entryX=0;entryY=0.5;entryDx=0;entryDy=0;" edge="1" parent="1">
          <mxGeometry relative="1" as="geometry">
            <mxPoint x="581" y="239.17000000000002" as="sourcePoint" />
            <mxPoint x="686" y="239.17000000000002" as="targetPoint" />
          </mxGeometry>
        </mxCell>
        <mxCell id="l-lV2bE-uu0mC1iwyiuy-89" value="b0" style="edgeLabel;html=1;align=center;verticalAlign=middle;resizable=0;points=[];" vertex="1" connectable="0" parent="l-lV2bE-uu0mC1iwyiuy-88">
          <mxGeometry x="0.008" y="1" relative="1" as="geometry">
            <mxPoint x="2" as="offset" />
          </mxGeometry>
        </mxCell>
        <mxCell id="l-lV2bE-uu0mC1iwyiuy-90" style="edgeStyle=orthogonalEdgeStyle;rounded=0;orthogonalLoop=1;jettySize=auto;html=1;exitX=1;exitY=0.5;exitDx=0;exitDy=0;entryX=0;entryY=0.5;entryDx=0;entryDy=0;" edge="1" parent="1">
          <mxGeometry relative="1" as="geometry">
            <mxPoint x="581" y="223.93" as="sourcePoint" />
            <mxPoint x="686" y="223.93" as="targetPoint" />
          </mxGeometry>
        </mxCell>
        <mxCell id="l-lV2bE-uu0mC1iwyiuy-91" value="b1" style="edgeLabel;html=1;align=center;verticalAlign=middle;resizable=0;points=[];" vertex="1" connectable="0" parent="l-lV2bE-uu0mC1iwyiuy-90">
          <mxGeometry x="0.0488" y="1" relative="1" as="geometry">
            <mxPoint as="offset" />
          </mxGeometry>
        </mxCell>
        <mxCell id="l-lV2bE-uu0mC1iwyiuy-94" value="ERROR" style="edgeStyle=orthogonalEdgeStyle;rounded=0;orthogonalLoop=1;jettySize=auto;html=1;" edge="1" parent="1">
          <mxGeometry x="0.5722" y="8" relative="1" as="geometry">
            <mxPoint x="670" y="404" as="targetPoint" />
            <Array as="points">
              <mxPoint x="433" y="404" />
            </Array>
            <mxPoint as="offset" />
            <mxPoint x="483" y="404.0000000000001" as="sourcePoint" />
          </mxGeometry>
        </mxCell>
        <mxCell id="l-lV2bE-uu0mC1iwyiuy-96" value="FIN" style="edgeStyle=orthogonalEdgeStyle;rounded=0;orthogonalLoop=1;jettySize=auto;html=1;" edge="1" parent="1">
          <mxGeometry x="-0.375" y="10" relative="1" as="geometry">
            <mxPoint x="406" y="310" as="targetPoint" />
            <Array as="points">
              <mxPoint x="180" y="310" />
            </Array>
            <mxPoint as="offset" />
            <mxPoint x="180" y="310" as="sourcePoint" />
          </mxGeometry>
        </mxCell>
        <mxCell id="r2TukwAJI6tJ12TSGZsX-1" value="" style="shape=flexArrow;endArrow=none;startArrow=classic;html=1;rounded=0;width=5.348837209302326;endSize=3.5813953488372094;endWidth=10.151433207138995;startWidth=10.151433207138995;startSize=3.5813953488372094;endFill=0;" edge="1" parent="1">
          <mxGeometry width="100" height="100" relative="1" as="geometry">
            <mxPoint x="406" y="370.00156133828983" as="sourcePoint" />
            <mxPoint x="115.5" y="370.43" as="targetPoint" />
            <Array as="points">
              <mxPoint x="175.5" y="370.43" />
            </Array>
          </mxGeometry>
        </mxCell>
        <mxCell id="r2TukwAJI6tJ12TSGZsX-2" value="valor_inicial" style="edgeLabel;html=1;align=center;verticalAlign=middle;resizable=0;points=[];" vertex="1" connectable="0" parent="r2TukwAJI6tJ12TSGZsX-1">
          <mxGeometry x="0.1742" y="1" relative="1" as="geometry">
            <mxPoint x="-53" y="-13" as="offset" />
          </mxGeometry>
        </mxCell>
        <mxCell id="r2TukwAJI6tJ12TSGZsX-3" value="" style="shape=flexArrow;endArrow=none;startArrow=classic;html=1;rounded=0;width=5.348837209302326;endSize=3.5813953488372094;endWidth=10.151433207138995;startWidth=10.151433207138995;startSize=3.5813953488372094;endFill=0;" edge="1" parent="1">
          <mxGeometry width="100" height="100" relative="1" as="geometry">
            <mxPoint x="406" y="399.17" as="sourcePoint" />
            <mxPoint x="115.5" y="399.17" as="targetPoint" />
            <Array as="points">
              <mxPoint x="197.5" y="399.17" />
            </Array>
          </mxGeometry>
        </mxCell>
        <mxCell id="r2TukwAJI6tJ12TSGZsX-4" value="valor_final" style="edgeLabel;html=1;align=center;verticalAlign=middle;resizable=0;points=[];" vertex="1" connectable="0" parent="r2TukwAJI6tJ12TSGZsX-3">
          <mxGeometry x="0.2895" relative="1" as="geometry">
            <mxPoint x="-41" y="-12" as="offset" />
          </mxGeometry>
        </mxCell>
        <mxCell id="r2TukwAJI6tJ12TSGZsX-5" value="Comparador de incremento" style="rounded=1;whiteSpace=wrap;html=1;" vertex="1" parent="1">
          <mxGeometry x="406" y="140" width="77" height="80" as="geometry" />
        </mxCell>
        <mxCell id="83xTKTv87zPEIN_51eF2-2" value="PAUSA" style="endArrow=classic;html=1;rounded=0;" edge="1" parent="1" source="r2TukwAJI6tJ12TSGZsX-5">
          <mxGeometry x="0.4161" y="10" width="50" height="50" relative="1" as="geometry">
            <mxPoint x="430" y="140" as="sourcePoint" />
            <mxPoint x="680" y="180" as="targetPoint" />
            <mxPoint as="offset" />
          </mxGeometry>
        </mxCell>
        <mxCell id="83xTKTv87zPEIN_51eF2-3" value="Comparador de consistencia" style="rounded=1;whiteSpace=wrap;html=1;" vertex="1" parent="1">
          <mxGeometry x="406" y="345" width="77" height="105" as="geometry" />
        </mxCell>
        <mxCell id="83xTKTv87zPEIN_51eF2-6" value="" style="group" vertex="1" connectable="0" parent="1">
          <mxGeometry x="196.5" y="400" width="92" height="38" as="geometry" />
        </mxCell>
        <mxCell id="l-lV2bE-uu0mC1iwyiuy-97" style="edgeStyle=orthogonalEdgeStyle;rounded=0;orthogonalLoop=1;jettySize=auto;html=1;" edge="1" parent="83xTKTv87zPEIN_51eF2-6" target="83xTKTv87zPEIN_51eF2-3">
          <mxGeometry relative="1" as="geometry">
            <mxPoint x="128" y="37" as="targetPoint" />
            <mxPoint y="37" as="sourcePoint" />
            <Array as="points">
              <mxPoint x="0.5" y="38" />
            </Array>
          </mxGeometry>
        </mxCell>
        <mxCell id="l-lV2bE-uu0mC1iwyiuy-98" value="UP/DOWN" style="edgeLabel;html=1;align=center;verticalAlign=middle;resizable=0;points=[];" vertex="1" connectable="0" parent="l-lV2bE-uu0mC1iwyiuy-97">
          <mxGeometry x="-0.7221" y="2" relative="1" as="geometry">
            <mxPoint x="52" y="-8" as="offset" />
          </mxGeometry>
        </mxCell>
        <mxCell id="l-lV2bE-uu0mC1iwyiuy-99" value="__" style="text;html=1;align=center;verticalAlign=middle;whiteSpace=wrap;rounded=0;" vertex="1" parent="83xTKTv87zPEIN_51eF2-6">
          <mxGeometry x="32" width="60" height="30" as="geometry" />
        </mxCell>
        <mxCell id="83xTKTv87zPEIN_51eF2-7" value="LÃ³gica de continuaciÃ³n" style="rounded=1;whiteSpace=wrap;html=1;" vertex="1" parent="1">
          <mxGeometry x="406" y="240" width="77" height="90" as="geometry" />
        </mxCell>
        <mxCell id="w3JF3N-OzMD1o2Zs81Ng-1" value="SEGUIR" style="endArrow=classic;html=1;rounded=0;exitX=0.999;exitY=0.335;exitDx=0;exitDy=0;exitPerimeter=0;" edge="1" parent="1" source="83xTKTv87zPEIN_51eF2-7">
          <mxGeometry x="0.4161" y="10" width="50" height="50" relative="1" as="geometry">
            <mxPoint x="489" y="270" as="sourcePoint" />
            <mxPoint x="680" y="270" as="targetPoint" />
            <mxPoint as="offset" />
          </mxGeometry>
        </mxCell>
        <mxCell id="nezH1h23jMkKmjPHsY8Y-1" value="" style="shape=flexArrow;endArrow=none;startArrow=classic;html=1;rounded=0;width=5.348837209302326;endSize=3.5813953488372094;endWidth=10.151433207138995;startWidth=10.151433207138995;startSize=3.5813953488372094;endFill=0;" edge="1" parent="1">
          <mxGeometry width="100" height="100" relative="1" as="geometry">
            <mxPoint x="406" y="260" as="sourcePoint" />
            <mxPoint x="115.5" y="260.4284386617102" as="targetPoint" />
            <Array as="points">
              <mxPoint x="175.5" y="260.4284386617102" />
            </Array>
          </mxGeometry>
        </mxCell>
        <mxCell id="nezH1h23jMkKmjPHsY8Y-2" value="valor_inicial" style="edgeLabel;html=1;align=center;verticalAlign=middle;resizable=0;points=[];" vertex="1" connectable="0" parent="nezH1h23jMkKmjPHsY8Y-1">
          <mxGeometry x="0.1742" y="1" relative="1" as="geometry">
            <mxPoint x="-53" y="-13" as="offset" />
          </mxGeometry>
        </mxCell>
        <mxCell id="nezH1h23jMkKmjPHsY8Y-3" value="" style="shape=flexArrow;endArrow=none;startArrow=classic;html=1;rounded=0;width=5.348837209302326;endSize=3.5813953488372094;endWidth=10.151433207138995;startWidth=10.151433207138995;startSize=3.5813953488372094;endFill=0;" edge="1" parent="1">
          <mxGeometry width="100" height="100" relative="1" as="geometry">
            <mxPoint x="680" y="310" as="sourcePoint" />
            <mxPoint x="483" y="310.4284386617102" as="targetPoint" />
            <Array as="points">
              <mxPoint x="543" y="310.4284386617102" />
            </Array>
          </mxGeometry>
        </mxCell>
        <mxCell id="nezH1h23jMkKmjPHsY8Y-4" value="valor_actual" style="edgeLabel;html=1;align=center;verticalAlign=middle;resizable=0;points=[];" vertex="1" connectable="0" parent="nezH1h23jMkKmjPHsY8Y-3">
          <mxGeometry x="0.1742" y="1" relative="1" as="geometry">
            <mxPoint x="55" y="-13" as="offset" />
          </mxGeometry>
        </mxCell>
      </root>
    </mxGraphModel>
  </diagram>
</mxfile>
